<svg width="14" height="14" viewBox="0 0 14 14" fill="none" xmlns="http://www.w3.org/2000/svg">
<path d="M7 0C3.14029 0 0 3.14013 0 7C0 10.8599 3.14029 14 7 14C10.8599 14 14 10.8599 14 7C14 3.14013 10.8597 0 7 0ZM7 12.9781C3.70371 12.9781 1.02189 10.2963 1.02189 7C1.02189 3.70371 3.70371 1.02189 7 1.02189C10.2963 1.02189 12.9781 3.70368 12.9781 6.99984C12.9781 10.2963 10.2963 12.9781 7 12.9781Z" fill="#F29294"/>
<path d="M9.38443 6.99999H7.17033V3.93429C7.17033 3.65207 6.9416 3.42334 6.65938 3.42334C6.37717 3.42334 6.14844 3.65207 6.14844 3.93429V7.51093C6.14844 7.79315 6.37717 8.02188 6.65938 8.02188H9.38443C9.66665 8.02188 9.89538 7.79315 9.89538 7.51093C9.89538 7.22872 9.66665 6.99999 9.38443 6.99999Z" fill="#F29294"/>
</svg>
