<svg width="17" height="12" viewBox="0 0 17 12" fill="none" xmlns="http://www.w3.org/2000/svg">
<path d="M2.06467 11.9309C1.51613 11.9309 0.998052 11.71 0.601879 11.3214C0.205705 10.9329 0 10.4148 0 9.86624V2.06467C0 1.51613 0.220943 0.998052 0.609497 0.601879C0.998052 0.205705 1.51613 0 2.06467 0H14.5365C15.0851 0 15.6108 0.220943 15.9993 0.609498C16.3879 0.998052 16.6012 1.51613 16.6088 2.07229V9.86624C16.6088 10.4148 16.3879 10.9329 15.9993 11.329C15.6108 11.7252 15.0927 11.9309 14.5365 11.9385H2.06467V11.9309ZM2.06467 1.01329C1.78278 1.01329 1.52374 1.11995 1.31804 1.31804C1.12757 1.52374 1.01329 1.7904 1.01329 2.06467V9.85862C1.01329 10.1405 1.11995 10.3996 1.31804 10.5976C1.51613 10.7957 1.78278 10.9024 2.06467 10.9024H14.5365C14.8184 10.9024 15.0774 10.7957 15.2831 10.5976C15.4812 10.3996 15.5879 10.1329 15.5879 9.851V2.06467C15.5879 1.78278 15.4812 1.52374 15.2831 1.31804C15.0851 1.11233 14.8184 1.01329 14.5365 1.01329H2.06467Z" fill="#706A79"/>
<path d="M8.30439 6.94069C7.86251 6.94069 7.43586 6.81879 7.05492 6.59785L0.251406 2.55231C0.144744 2.48374 0.0609384 2.37708 0.0304636 2.24756C-1.1324e-05 2.11804 0.00760739 1.98852 0.0761759 1.87424C0.144744 1.76758 0.251406 1.68377 0.373306 1.6533C0.4114 1.64568 0.457112 1.63806 0.502824 1.63806C0.58663 1.63806 0.678055 1.66092 0.754242 1.70663L7.56538 5.74455C7.78632 5.87407 8.03012 5.95026 8.28916 5.95026C8.54819 5.95026 8.79961 5.88169 9.01293 5.74455L15.8241 1.70663C15.9003 1.66092 15.9841 1.64568 16.0679 1.64568C16.1136 1.64568 16.1517 1.6533 16.1974 1.66092C16.3269 1.69139 16.4336 1.7752 16.5021 1.88948C16.5631 2.00376 16.5783 2.13328 16.5402 2.2628C16.5098 2.39231 16.4259 2.49898 16.3117 2.56755L9.55386 6.61308C9.17293 6.82641 8.74628 6.94069 8.30439 6.94069Z" fill="#706A79"/>
</svg>
