<svg width="51" height="35" viewBox="0 0 51 35" fill="none" xmlns="http://www.w3.org/2000/svg">
<path d="M48.5767 15.3992C48.5272 15.3497 48.4777 15.3002 48.4282 15.3002C45.0116 14.1613 41.0009 15.7953 38.3766 19.3604C38.6242 17.2808 38.8718 12.7749 36.5941 10.2991C35.4057 9.01175 33.6727 8.5166 31.5435 8.71466C31.6426 8.31854 31.7416 7.97194 31.7911 7.57581V7.5263C31.5435 1.93109 29.8105 1.28739 27.6318 0.495151L26.4435 0.0495151C26.3939 0 26.3444 0 26.2949 0C25.7998 0.148545 25.2551 0.247576 24.7599 0.346606C21.9376 0.940787 19.0657 1.53497 15.9958 7.92242C15.055 5.99133 11.0443 -0.841757 2.47814 1.83206C2.42862 1.83206 2.42862 1.83206 2.37911 1.88157C0.74511 3.16897 0.0518983 5.19909 0.299474 7.97194C1.14123 16.1419 10.2025 27.976 15.253 30.4518H15.3521C15.4016 30.4518 15.4511 30.4518 15.5006 30.4023C19.1647 28.2236 23.5221 24.8071 26.9386 19.608C27.1862 24.7576 28.8202 29.9071 31.6426 34.6606C31.6921 34.7596 31.7911 34.7596 31.8406 34.7596H31.9396C32.7814 34.413 33.5736 34.1159 34.3164 33.8683C40.8524 31.3431 44.8136 29.8576 47.6359 27.0848C50.7554 23.9158 51.102 19.4594 48.5767 15.3992V15.3992ZM15.3521 29.9567C10.4006 27.3323 1.58687 15.8448 0.794625 7.92242C0.54705 5.34763 1.14123 3.46606 2.62669 2.32721C12.0346 -0.594182 15.5996 8.21951 15.7482 8.61563C15.7977 8.71466 15.8472 8.76418 15.9463 8.76418C16.0453 8.76418 16.1443 8.71466 16.1938 8.61563C19.2638 1.98061 22.0861 1.38642 24.859 0.841757C25.3541 0.742727 25.8493 0.643697 26.3444 0.495151C26.7406 0.643697 27.0872 0.792242 27.4833 0.940787C29.5629 1.73303 31.0484 2.2777 31.3455 7.57581C31.2464 8.07097 31.1474 8.5166 31.0484 8.96224V9.01175C28.127 20.2517 20.9968 26.5401 15.3521 29.9567V29.9567ZM47.2893 26.6887C44.566 29.412 40.6543 30.8974 34.1678 33.3732C33.4746 33.6208 32.7319 33.9179 31.9892 34.215C29.1173 29.412 27.5328 24.1139 27.4338 18.8653C29.1173 16.1419 30.5037 12.973 31.4445 9.30884C33.5241 9.06127 35.1581 9.5069 36.297 10.6953C39.1193 13.6662 37.7824 20.3507 37.7824 20.4002C37.7824 20.4993 37.8319 20.6478 37.931 20.6973C38.03 20.7468 38.1785 20.6973 38.2281 20.5983C40.6543 16.6371 44.7641 14.6565 48.2301 15.7953C50.6068 19.6575 50.2602 23.7177 47.2893 26.6887V26.6887Z" fill="white"/>
</svg>
