<svg width="24" height="13" viewBox="0 0 24 13" fill="none" xmlns="http://www.w3.org/2000/svg">
<path d="M10.7457 12.8408H10.4229C10.1048 12.8408 9.84692 12.5829 9.84692 12.2648C9.84692 11.9467 10.1048 11.6888 10.4229 11.6888H10.7457C11.0638 11.6888 11.3217 11.9467 11.3217 12.2648C11.3217 12.5829 11.0638 12.8408 10.7457 12.8408Z" fill="#F29294"/>
<path d="M22.174 5.77502C22.4437 5.33386 22.5996 4.81527 22.5996 4.26072C22.5996 2.65973 21.3021 1.35715 19.7072 1.35715C18.1124 1.35715 16.8149 2.65973 16.8149 4.26072C16.8149 4.81623 16.9713 5.33559 17.2419 5.77728C16.8024 6.06567 16.4225 6.43824 16.1247 6.87139C15.7784 6.50827 15.3828 6.19915 14.9489 5.95061C15.4186 5.3279 15.698 4.5528 15.698 3.71319C15.698 1.66574 14.039 0 12 0C9.96086 0 8.30194 1.66574 8.30194 3.71319C8.30194 4.5528 8.58125 5.3279 9.05102 5.95061C8.61715 6.19911 8.22158 6.50827 7.87526 6.87139C7.57752 6.43819 7.19755 6.06567 6.75811 5.77728C7.02869 5.33559 7.18512 4.81623 7.18512 4.26072C7.18512 2.65973 5.88763 1.35715 4.29278 1.35715C2.69794 1.35715 1.40045 2.65973 1.40045 4.26072C1.40045 4.81527 1.5563 5.33381 1.82602 5.77502C0.697584 6.51019 0 7.77115 0 9.15821V10.3902C0 10.7083 0.257904 10.9662 0.576 10.9662H6.42562V12.2648C6.42562 12.5829 6.68352 12.8408 7.00162 12.8408H8.87798C9.19608 12.8408 9.45398 12.5829 9.45398 12.2648C9.45398 11.9467 9.19608 11.6888 8.87798 11.6888H7.57762V10.4921C7.57762 8.90218 8.51222 7.45152 9.9323 6.79027C10.5229 7.1917 11.2347 7.42637 12 7.42637C12.7653 7.42637 13.4771 7.1917 14.0677 6.79027C15.4878 7.45152 16.4224 8.90218 16.4224 10.4921V11.6888H12.3994C12.0813 11.6888 11.8234 11.9467 11.8234 12.2648C11.8234 12.5829 12.0813 12.8408 12.3994 12.8408H16.9984C17.3165 12.8408 17.5744 12.5829 17.5744 12.2648V10.9662H23.424C23.7421 10.9662 24 10.7083 24 10.3902V9.15821C24 7.77115 23.3024 6.51019 22.174 5.77502ZM4.29278 2.5092C5.2524 2.5092 6.03312 3.29496 6.03312 4.26077C6.03312 5.22662 5.2524 6.01239 4.29278 6.01239C3.33317 6.01239 2.55245 5.22662 2.55245 4.26077C2.5524 3.29496 3.33312 2.5092 4.29278 2.5092ZM1.152 9.15821C1.152 8.09669 1.72267 7.13875 2.63045 6.6347C3.10114 6.96787 3.67435 7.16434 4.29278 7.16434C4.91078 7.16434 5.48362 6.96811 5.95411 6.63538C6.45826 6.91723 6.87014 7.34808 7.12934 7.86687C6.7812 8.46701 6.55824 9.12619 6.46973 9.81408H1.152V9.15821ZM9.45398 3.71323C9.45398 2.30098 10.5961 1.15205 12 1.15205C13.4039 1.15205 14.546 2.30102 14.546 3.71323C14.546 5.12544 13.4039 6.27442 12 6.27442C10.5961 6.27442 9.45398 5.12544 9.45398 3.71323ZM19.7072 2.5092C20.6668 2.5092 21.4476 3.29496 21.4476 4.26077C21.4476 5.22662 20.6668 6.01239 19.7072 6.01239C18.7476 6.01239 17.9669 5.22662 17.9669 4.26077C17.9669 3.29496 18.7476 2.5092 19.7072 2.5092ZM22.848 9.81418H17.5303C17.4418 9.12624 17.2188 8.4671 16.8707 7.86696C17.1299 7.34818 17.5417 6.91728 18.0459 6.63547C18.5164 6.96821 19.0892 7.16443 19.7072 7.16443C20.3256 7.16443 20.8988 6.96792 21.3695 6.6348C22.2773 7.13875 22.848 8.09669 22.848 9.15821V9.81418Z" fill="#F29294"/>
</svg>
