<svg width="375" height="279" viewBox="0 0 375 279" fill="none" xmlns="http://www.w3.org/2000/svg">
<path d="M375 277H0V0H375V277Z" fill="#F29294"/>
<path d="M383.632 176.914V178.434V271.918V272.807H382.743H370.47H369.581V271.918V185.201V184.685L370.039 184.427L382.313 177.631L383.632 176.914ZM371.359 271H381.854V179.896L371.359 185.717V271Z" fill="white" fill-opacity="0.2"/>
<path d="M380.048 187.295H373.165V191.424H380.048V187.295Z" fill="white" fill-opacity="0.2"/>
<path d="M380.048 196.586H373.165V200.715H380.048V196.586Z" fill="white" fill-opacity="0.2"/>
<path d="M380.048 205.848H373.165V210.006H380.048V205.848Z" fill="white" fill-opacity="0.2"/>
<path d="M380.048 215.168H373.165V219.297H380.048V215.168Z" fill="white" fill-opacity="0.2"/>
<path d="M380.048 224.43H373.165V228.559H380.048V224.43Z" fill="white" fill-opacity="0.2"/>
<path d="M380.048 233.721H373.165V237.85H380.048V233.721Z" fill="white" fill-opacity="0.2"/>
<path d="M380.048 243.012H373.165V247.142H380.048V243.012Z" fill="white" fill-opacity="0.2"/>
<path d="M380.048 252.275H373.165V256.404H380.048V252.275Z" fill="white" fill-opacity="0.2"/>
<path d="M380.048 261.566H373.165V265.695H380.048V261.566Z" fill="white" fill-opacity="0.2"/>
<path d="M112.27 102.184H111.381V101.295V91.8603V91H112.298H178.798H179.687V91.889V101.323V102.212H178.798H174.612V271.918V272.807H173.723H117.317H116.428V271.918V102.184H112.27ZM172.834 271V101.295V100.377H173.723H177.881V92.7492H113.159V100.377H117.317H118.206V101.295V271H172.834Z" fill="white" fill-opacity="0.2"/>
<path fill-rule="evenodd" clip-rule="evenodd" d="M102.147 133.842L120.271 143.879V271.889H102.147V133.842Z" fill="#F29294"/>
<path d="M103.007 271H119.353V144.395L103.007 135.333V271ZM121.131 143.363V143.879V271.889V272.778H120.27H102.147H101.258V271.889V133.842V132.322L102.577 133.039L120.7 143.076L121.131 143.363Z" fill="white" fill-opacity="0.2"/>
<path d="M114.105 144.481H108.255V150.331H114.105V144.481Z" fill="white" fill-opacity="0.2"/>
<path d="M114.105 154.317H108.255V160.167H114.105V154.317Z" fill="white" fill-opacity="0.2"/>
<path d="M114.105 164.153H108.255V170.003H114.105V164.153Z" fill="white" fill-opacity="0.2"/>
<path d="M114.105 174.017H108.255V179.839H114.105V174.017Z" fill="white" fill-opacity="0.2"/>
<path d="M114.105 183.825H108.255V189.675H114.105V183.825Z" fill="white" fill-opacity="0.2"/>
<path d="M114.105 193.689H108.255V199.539H114.105V193.689Z" fill="white" fill-opacity="0.2"/>
<path d="M114.105 203.525H108.255V209.375H114.105V203.525Z" fill="white" fill-opacity="0.2"/>
<path d="M114.105 213.361H108.255V219.211H114.105V213.361Z" fill="white" fill-opacity="0.2"/>
<path d="M114.105 223.197H108.255V229.047H114.105V223.197Z" fill="white" fill-opacity="0.2"/>
<path d="M114.105 233.062H108.255V238.911H114.105V233.062Z" fill="white" fill-opacity="0.2"/>
<path d="M114.105 242.898H108.255V248.719H114.105V242.898Z" fill="white" fill-opacity="0.2"/>
<path d="M114.105 252.733H108.255V258.583H114.105V252.733Z" fill="white" fill-opacity="0.2"/>
<path d="M114.105 262.569H108.255V268.419H114.105V262.569Z" fill="white" fill-opacity="0.2"/>
<path fill-rule="evenodd" clip-rule="evenodd" d="M286.047 143.334H276.985V138.402H252.295V114.314L247.048 120.45V138.402H222.329V143.334H213.267V271.889H286.047V143.334Z" fill="#F29294"/>
<path d="M286.936 142.445V143.363V271.889V272.778H286.047H213.238H212.321V271.889V143.334V142.416H213.238H221.411V138.373V137.455H222.329H246.159V120.422L246.359 119.848L251.607 113.711L253.156 114.285V137.455H276.985H277.874V138.373V142.416H286.047H286.936V142.445ZM276.125 144.223V143.334V139.262H252.295H251.378V138.373V116.694L247.908 120.766V138.373V139.262H247.019H223.189V143.334V144.223H222.3H214.127V271H285.158V144.223H276.985H276.125Z" fill="white" fill-opacity="0.2"/>
<path d="M274.548 148.18H263.192V159.536H274.548V148.18Z" fill="#F29294"/>
<path d="M275.408 147.263V148.18V159.536V160.425H274.519H263.164H262.246V159.536V148.18V147.263H263.164H274.519H275.408ZM264.053 158.618H273.63V149.04H264.053V158.618Z" fill="white" fill-opacity="0.2"/>
<path d="M255.335 148.18H243.979V159.536H255.335V148.18Z" fill="#F29294"/>
<path d="M256.224 147.263V148.18V159.536V160.425H255.306H243.951H243.062V159.536V148.18V147.263H243.951H255.306H256.224ZM244.868 158.618H254.446V149.04H244.868V158.618Z" fill="white" fill-opacity="0.2"/>
<path d="M236.151 148.18H224.795V159.536H236.151V148.18Z" fill="#F29294"/>
<path d="M237.04 147.263V148.18V159.536V160.425H236.122H224.766H223.877V159.536V148.18V147.263H224.766H236.122H237.04ZM225.684 158.618H235.262V149.04H225.684V158.618Z" fill="white" fill-opacity="0.2"/>
<path d="M274.548 165.73H263.192V177.086H274.548V165.73Z" fill="#F29294"/>
<path d="M275.408 164.87V165.759V177.115V178.003H274.519H263.164H262.246V177.115V165.759V164.87H263.164H274.519H275.408ZM264.053 176.226H273.63V166.619H264.053V176.226Z" fill="white" fill-opacity="0.2"/>
<path d="M255.335 165.73H243.979V177.086H255.335V165.73Z" fill="#F29294"/>
<path d="M256.224 164.87V165.759V177.115V178.003H255.306H243.951H243.062V177.115V165.759V164.87H243.951H255.306H256.224ZM244.868 176.226H254.446V166.619H244.868V176.226Z" fill="white" fill-opacity="0.2"/>
<path d="M236.151 165.73H224.795V177.086H236.151V165.73Z" fill="#F29294"/>
<path d="M237.04 164.87V165.759V177.115V178.003H236.122H224.766H223.877V177.115V165.759V164.87H224.766H236.122H237.04ZM225.684 176.226H235.262V166.619H225.684V176.226Z" fill="white" fill-opacity="0.2"/>
<path d="M274.548 183.337H263.192V194.693H274.548V183.337Z" fill="#F29294"/>
<path d="M275.408 182.42V183.337V194.693V195.582H274.519H263.164H262.246V194.693V183.337V182.42H263.164H274.519H275.408ZM264.053 193.804H273.63V184.226H264.053V193.804Z" fill="white" fill-opacity="0.2"/>
<path d="M255.335 183.337H243.979V194.693H255.335V183.337Z" fill="#F29294"/>
<path d="M256.224 182.42V183.337V194.693V195.582H255.306H243.951H243.062V194.693V183.337V182.42H243.951H255.306H256.224ZM244.868 193.804H254.446V184.226H244.868V193.804Z" fill="white" fill-opacity="0.2"/>
<path d="M236.151 183.337H224.795V194.693H236.151V183.337Z" fill="#F29294"/>
<path d="M237.04 182.42V183.337V194.693V195.582H236.122H224.766H223.877V194.693V183.337V182.42H224.766H236.122H237.04ZM225.684 193.804H235.262V184.226H225.684V193.804Z" fill="white" fill-opacity="0.2"/>
<path d="M274.548 200.916H263.192V212.271H274.548V200.916Z" fill="#F29294"/>
<path d="M275.408 200.027V200.916V212.271V213.189H274.519H263.164H262.246V212.271V200.916V200.027H263.164H274.519H275.408ZM264.053 211.382H273.63V201.805H264.053V211.382Z" fill="white" fill-opacity="0.2"/>
<path d="M255.335 200.916H243.979V212.271H255.335V200.916Z" fill="#F29294"/>
<path d="M256.224 200.027V200.916V212.271V213.189H255.306H243.951H243.062V212.271V200.916V200.027H243.951H255.306H256.224ZM244.868 211.382H254.446V201.805H244.868V211.382Z" fill="white" fill-opacity="0.2"/>
<path d="M236.151 200.916H224.795V212.271H236.151V200.916Z" fill="#F29294"/>
<path d="M237.04 200.027V200.916V212.271V213.189H236.122H224.766H223.877V212.271V200.916V200.027H224.766H236.122H237.04ZM225.684 211.382H235.262V201.805H225.684V211.382Z" fill="white" fill-opacity="0.2"/>
<path d="M274.548 218.494H263.192V229.85H274.548V218.494Z" fill="#F29294"/>
<path d="M275.408 217.605V218.494V229.85V230.739H274.519H263.164H262.246V229.85V218.494V217.605H263.164H274.519H275.408ZM264.053 228.99H273.63V219.383H264.053V228.99Z" fill="white" fill-opacity="0.2"/>
<path d="M255.335 218.494H243.979V229.85H255.335V218.494Z" fill="#F29294"/>
<path d="M256.224 217.605V218.494V229.85V230.739H255.306H243.951H243.062V229.85V218.494V217.605H243.951H255.306H256.224ZM244.868 228.99H254.446V219.383H244.868V228.99Z" fill="white" fill-opacity="0.2"/>
<path d="M236.151 218.494H224.795V229.85H236.151V218.494Z" fill="#F29294"/>
<path d="M237.04 217.605V218.494V229.85V230.739H236.122H224.766H223.877V229.85V218.494V217.605H224.766H236.122H237.04ZM225.684 228.99H235.262V219.383H225.684V228.99Z" fill="white" fill-opacity="0.2"/>
<path d="M274.548 236.073H263.192V247.428H274.548V236.073Z" fill="#F29294"/>
<path d="M275.408 235.184V236.073V247.428V248.346H274.519H263.164H262.246V247.428V236.073V235.184H263.164H274.519H275.408ZM264.053 246.539H273.63V236.962H264.053V246.539Z" fill="white" fill-opacity="0.2"/>
<path d="M255.335 236.073H243.979V247.428H255.335V236.073Z" fill="#F29294"/>
<path d="M256.224 235.184V236.073V247.428V248.346H255.306H243.951H243.062V247.428V236.073V235.184H243.951H255.306H256.224ZM244.868 246.539H254.446V236.962H244.868V246.539Z" fill="white" fill-opacity="0.2"/>
<path d="M236.151 236.073H224.795V247.428H236.151V236.073Z" fill="#F29294"/>
<path d="M237.04 235.184V236.073V247.428V248.346H236.122H224.766H223.877V247.428V236.073V235.184H224.766H236.122H237.04ZM225.684 246.539H235.262V236.962H225.684V246.539Z" fill="white" fill-opacity="0.2"/>
<path d="M274.548 253.651H263.192V265.007H274.548V253.651Z" fill="#F29294"/>
<path d="M275.408 252.791V253.68V265.035V265.924H274.519H263.164H262.246V265.035V253.68V252.791H263.164H274.519H275.408ZM264.053 264.146H273.63V254.54H264.053V264.146Z" fill="white" fill-opacity="0.2"/>
<path d="M255.335 253.651H243.979V265.007H255.335V253.651Z" fill="#F29294"/>
<path d="M256.224 252.791V253.68V265.035V265.924H255.306H243.951H243.062V265.035V253.68V252.791H243.951H255.306H256.224ZM244.868 264.146H254.446V254.54H244.868V264.146Z" fill="white" fill-opacity="0.2"/>
<path d="M236.151 253.651H224.795V265.007H236.151V253.651Z" fill="#F29294"/>
<path d="M237.04 252.791V253.68V265.035V265.924H236.122H224.766H223.877V265.035V253.68V252.791H224.766H236.122H237.04ZM225.684 264.146H235.262V254.54H225.684V264.146Z" fill="white" fill-opacity="0.2"/>
<path fill-rule="evenodd" clip-rule="evenodd" d="M326.509 200.313H318.336V193.345H307.812V180.498L304.457 183.653V193.345H293.933V200.313H287.624V193.345H277.1V180.498L273.716 183.653V193.345H263.221V200.313H254.991H249.112V207.655H254.991V271.889H326.509V207.655H332.416V200.313H326.509Z" fill="#F29294"/>
<path d="M332.416 199.425H333.305V200.314V207.683V208.572H332.416H327.427V271.918V272.807H326.509H254.991H254.102V271.918V208.544H249.112H248.195V207.655V200.285V199.396H249.112H254.991H262.332V193.317V192.428H263.221H272.856V183.624V183.251L273.143 182.964L276.498 179.81L277.989 178.405V180.441V192.399H287.624H288.513V193.288V199.367H293.073V193.288V192.399H293.962H303.597V183.595V183.223L303.884 182.936L307.239 179.781L308.73 178.376V180.412V192.37H318.365H319.254V193.259V199.339H326.567H332.416V199.425ZM317.419 201.174V200.285V194.234H307.812H306.923V193.317V182.534L305.318 184.025V193.317V194.234H304.429H294.793V200.285V201.174H293.904H287.596H286.678V200.285V194.234H277.072H276.183V193.317V182.534L274.577 184.025V193.317V194.234H273.688H264.053V200.285V201.174H263.164H254.962H249.973V206.766H254.962H255.88V207.655V271H325.62V207.655V206.766H326.509H331.528V201.174H326.509H318.308H317.419Z" fill="white" fill-opacity="0.2"/>
<path d="M318.767 207.654H293.503V212.472H318.767V207.654Z" fill="#F29294"/>
<path d="M319.627 206.766V207.683V212.501V213.418H318.709H293.474H292.585V212.501V207.683V206.766H293.474H318.709H319.627ZM294.392 211.612H317.849V208.543H294.392V211.612Z" fill="white" fill-opacity="0.2"/>
<path d="M288.026 207.654H262.791V212.472H288.026V207.654Z" fill="#F29294"/>
<path d="M288.915 206.766V207.683V212.501V213.418H287.997H262.791H261.902V212.501V207.683V206.766H262.791H288.026H288.915ZM263.651 211.612H287.137V208.543H263.651V211.612Z" fill="white" fill-opacity="0.2"/>
<path d="M318.767 216.659H293.503V221.505H318.767V216.659Z" fill="#F29294"/>
<path d="M319.627 215.77V216.659V221.505V222.394H318.709H293.474H292.585V221.505V216.659V215.77H293.474H318.709H319.627ZM294.392 220.645H317.849V217.576H294.392V220.645Z" fill="white" fill-opacity="0.2"/>
<path d="M288.026 216.659H262.791V221.505H288.026V216.659Z" fill="#F29294"/>
<path d="M288.915 215.77V216.659V221.505V222.394H287.997H262.791H261.902V221.505V216.659V215.77H262.791H288.026H288.915ZM263.651 220.645H287.137V217.576H263.651V220.645Z" fill="white" fill-opacity="0.2"/>
<path d="M318.767 225.692H293.503V230.538H318.767V225.692Z" fill="#F29294"/>
<path d="M319.627 224.803V225.692V230.538V231.427H318.709H293.474H292.585V230.538V225.692V224.803H293.474H318.709H319.627ZM294.392 229.62H317.849V226.552H294.392V229.62Z" fill="white" fill-opacity="0.2"/>
<path d="M288.026 225.692H262.791V230.538H288.026V225.692Z" fill="#F29294"/>
<path d="M288.915 224.803V225.692V230.538V231.427H287.997H262.791H261.902V230.538V225.692V224.803H262.791H288.026H288.915ZM263.651 229.62H287.137V226.552H263.651V229.62Z" fill="white" fill-opacity="0.2"/>
<path d="M318.767 234.696H293.503V239.542H318.767V234.696Z" fill="#F29294"/>
<path d="M319.627 233.836V234.725V239.571V240.46H318.709H293.474H292.585V239.571V234.725V233.836H293.474H318.709H319.627ZM294.392 238.653H317.849V235.585H294.392V238.653Z" fill="white" fill-opacity="0.2"/>
<path d="M288.026 234.696H262.791V239.542H288.026V234.696Z" fill="#F29294"/>
<path d="M288.915 233.836V234.725V239.571V240.46H287.997H262.791H261.902V239.571V234.725V233.836H262.791H288.026H288.915ZM263.651 238.653H287.137V235.585H263.651V238.653Z" fill="white" fill-opacity="0.2"/>
<path d="M318.767 243.729H293.503V248.547H318.767V243.729Z" fill="#F29294"/>
<path d="M319.627 242.84V243.758V248.575V249.493H318.709H293.474H292.585V248.575V243.758V242.84H293.474H318.709H319.627ZM294.392 247.686H317.849V244.618H294.392V247.686Z" fill="white" fill-opacity="0.2"/>
<path d="M288.026 243.729H262.791V248.547H288.026V243.729Z" fill="#F29294"/>
<path d="M288.915 242.84V243.758V248.575V249.493H287.997H262.791H261.902V248.575V243.758V242.84H262.791H288.026H288.915ZM263.651 247.686H287.137V244.618H263.651V247.686Z" fill="white" fill-opacity="0.2"/>
<path d="M318.767 252.733H293.503V257.58H318.767V252.733Z" fill="#F29294"/>
<path d="M319.627 251.844V252.733V257.58V258.469H318.709H293.474H292.585V257.58V252.733V251.844H293.474H318.709H319.627ZM294.392 256.691H317.849V253.622H294.392V256.691Z" fill="white" fill-opacity="0.2"/>
<path d="M288.026 252.733H262.791V257.58H288.026V252.733Z" fill="#F29294"/>
<path d="M288.915 251.844V252.733V257.58V258.469H287.997H262.791H261.902V257.58V252.733V251.844H262.791H288.026H288.915ZM263.651 256.691H287.137V253.622H263.651V256.691Z" fill="white" fill-opacity="0.2"/>
<path d="M318.767 261.766H293.503V266.613H318.767V261.766Z" fill="#F29294"/>
<path d="M319.627 260.878V261.766V266.613V267.502H318.709H293.474H292.585V266.613V261.766V260.878H293.474H318.709H319.627ZM294.392 265.724H317.849V262.627H294.392V265.724Z" fill="white" fill-opacity="0.2"/>
<path d="M288.026 261.766H262.791V266.613H288.026V261.766Z" fill="#F29294"/>
<path d="M288.915 260.878V261.766V266.613V267.502H287.997H262.791H261.902V266.613V261.766V260.878H262.791H288.026H288.915ZM263.651 265.724H287.137V262.627H263.651V265.724Z" fill="white" fill-opacity="0.2"/>
<path fill-rule="evenodd" clip-rule="evenodd" d="M146.653 145.599L122.966 158.762V271.889H146.653V145.599Z" fill="#F29294"/>
<path d="M147.541 144.137V145.628V271.889V272.778H146.652H122.937H122.048V271.889V158.762V158.246L122.507 157.988L146.222 144.854L147.541 144.137ZM123.855 271H145.792V147.119L123.855 159.249V271Z" fill="white" fill-opacity="0.2"/>
<path d="M139.684 164.411H137.906V265.294H139.684V164.411Z" fill="white" fill-opacity="0.2"/>
<path d="M131.683 164.411H129.934V265.294H131.683V164.411Z" fill="white" fill-opacity="0.2"/>
<path d="M457.76 271.143H-150.461V278.513H457.76V271.143Z" fill="white" fill-opacity="0.2"/>
<path fill-rule="evenodd" clip-rule="evenodd" d="M329.52 169.028V271.889H363.473V169.028H366.541V163.35H358.024V124.035H360.118V120.164H332.875V124.035H334.969V163.35H326.452V169.028H329.52Z" fill="#F29294"/>
<path d="M326.452 169.917H325.563V169.028V163.35V162.461H326.452H334.08V124.924H332.875H331.986V124.035V120.164V119.275H332.875H360.118H361.007V120.164V124.035V124.924H360.118H358.942V162.461H366.541H367.43V163.35V169.028V169.917H366.541H364.39V271.889V272.778H363.473H329.491H328.603V271.889V169.917H326.452ZM362.612 271V169.028V168.139H363.501H365.681V164.21H358.053H357.164V163.321V124.035V123.117H358.053H359.257V121.024H333.793V123.117H334.969H335.858V124.035V163.35V164.239H334.969H327.369V168.168H329.52H330.409V169.057V271.029H362.612V271Z" fill="white" fill-opacity="0.2"/>
<path d="M357.766 171.207H356.017V267.502H357.766V171.207Z" fill="white" fill-opacity="0.2"/>
<path d="M350.855 171.207H349.077V267.502H350.855V171.207Z" fill="white" fill-opacity="0.2"/>
<path d="M343.915 171.207H342.138V267.502H343.915V171.207Z" fill="white" fill-opacity="0.2"/>
<path d="M336.976 171.207H335.198V267.502H336.976V171.207Z" fill="white" fill-opacity="0.2"/>
<path d="M352.805 125.067H351.056V160.368H352.805V125.067Z" fill="white" fill-opacity="0.2"/>
<path d="M347.385 125.067H345.607V160.368H347.385V125.067Z" fill="white" fill-opacity="0.2"/>
<path d="M341.966 125.067H340.188V160.368H341.966V125.067Z" fill="white" fill-opacity="0.2"/>
<path fill-rule="evenodd" clip-rule="evenodd" d="M57.2403 181.789H46.9169V173.043H33.6398V156.898L29.4245 160.855V173.043H16.2048V181.789H8.23281V173.043H-4.98689V156.898L-9.23096 160.855V173.043H-22.4507V181.789H-32.8027H-40.2012V191.08H-32.8027V271.889H57.2403V191.08H64.6388V181.789H57.2403Z" fill="#F29294"/>
<path d="M64.6388 180.9H65.5277V181.817V191.08V191.969H64.6388H58.1006V271.889V272.778H57.2116H-32.8314H-33.7203V271.889V191.969H-40.2585H-41.1475V191.08V181.817V180.9H-40.2585H-32.8601H-23.4256V173.071V172.182H-22.508H-10.1772V160.884V160.511L-9.86181 160.224L-5.64642 156.267L-4.12658 154.862V156.926V172.211H8.20416H9.1218V173.1V180.928H15.2872V173.1V172.211H16.2048H28.5642V160.912V160.54L28.851 160.253L33.0664 156.296L34.5862 154.89V156.955V172.24H46.9456H47.8346V173.129V180.957H57.269H64.6388V180.9ZM45.9993 182.678V181.789V173.931H33.6399H32.7509V173.042V158.905L30.2848 161.228V173.042V173.931H29.3958H17.0364V181.789V182.678H16.1474H8.17548H7.28653V181.789V173.931H-5.07289H-5.96185V173.042V158.905L-8.428 161.228V173.042V173.931H-9.31695H-21.6764V181.789V182.678H-22.5653H-32.9174H-39.4556V190.162H-32.9174H-31.9998V191.08V271H56.3227V191.08V190.162H57.2403H63.7785V182.678H57.2403H46.9169H45.9993Z" fill="white" fill-opacity="0.2"/>
<path fill-rule="evenodd" clip-rule="evenodd" d="M207.962 169.917H200.764V165.988H181.15V146.89L177.02 151.736V165.988H157.406V169.917H150.208V271.889H207.962V169.917Z" fill="#F29294"/>
<path d="M208.851 169.028V169.917V271.889V272.778H207.933H150.18H149.291V271.889V169.917V169.028H150.18H156.488V165.988V165.07H157.406H176.103V151.736L176.332 151.191L180.462 146.316L182.01 146.89V165.099H200.736H201.625V166.017V169.056H207.933H208.851V169.028ZM199.904 170.806V169.917V166.877H181.179H180.29V165.988V149.27L177.909 152.051V165.988V166.877H177.02H158.295V169.917V170.806H157.406H151.097V271.029H207.073V170.806H200.764H199.904Z" fill="white" fill-opacity="0.2"/>
<path d="M198.814 173.731H189.81V182.764H198.814V173.731Z" fill="#F29294"/>
<path d="M199.703 172.842V173.731V182.764V183.653H198.814H189.81H188.921V182.764V173.731V172.842H189.81H198.814H199.703ZM190.699 181.875H197.925V174.648H190.699V181.875Z" fill="white" fill-opacity="0.2"/>
<path d="M183.587 173.731H174.583V182.764H183.587V173.731Z" fill="#F29294"/>
<path d="M184.476 172.842V173.731V182.764V183.653H183.587H174.583H173.694V182.764V173.731V172.842H174.583H183.587H184.476ZM175.472 181.875H182.698V174.648H175.472V181.875Z" fill="white" fill-opacity="0.2"/>
<path d="M168.36 173.731H159.356V182.764H168.36V173.731Z" fill="#F29294"/>
<path d="M169.249 172.842V173.731V182.764V183.653H168.36H159.356H158.467V182.764V173.731V172.842H159.356H168.36H169.249ZM160.245 181.875H167.471V174.648H160.245V181.875Z" fill="white" fill-opacity="0.2"/>
<path d="M198.814 187.696H189.81V196.729H198.814V187.696Z" fill="#F29294"/>
<path d="M199.703 186.807V187.696V196.729V197.618H198.814H189.81H188.921V196.729V187.696V186.807H189.81H198.814H199.703ZM190.699 195.811H197.925V188.585H190.699V195.811Z" fill="white" fill-opacity="0.2"/>
<path d="M183.587 187.696H174.583V196.729H183.587V187.696Z" fill="#F29294"/>
<path d="M184.476 186.807V187.696V196.729V197.618H183.587H174.583H173.694V196.729V187.696V186.807H174.583H183.587H184.476ZM175.472 195.811H182.698V188.585H175.472V195.811Z" fill="white" fill-opacity="0.2"/>
<path d="M168.36 187.696H159.356V196.729H168.36V187.696Z" fill="#F29294"/>
<path d="M169.249 186.807V187.696V196.729V197.618H168.36H159.356H158.467V196.729V187.696V186.807H159.356H168.36H169.249ZM160.245 195.811H167.471V188.585H160.245V195.811Z" fill="white" fill-opacity="0.2"/>
<path d="M198.814 201.633H189.81V210.666H198.814V201.633Z" fill="#F29294"/>
<path d="M199.703 200.744V201.633V210.666V211.554H198.814H189.81H188.921V210.666V201.633V200.744H189.81H198.814H199.703ZM190.699 209.748H197.925V202.522H190.699V209.748Z" fill="white" fill-opacity="0.2"/>
<path d="M183.587 201.633H174.583V210.666H183.587V201.633Z" fill="#F29294"/>
<path d="M184.476 200.744V201.633V210.666V211.554H183.587H174.583H173.694V210.666V201.633V200.744H174.583H183.587H184.476ZM175.472 209.748H182.698V202.522H175.472V209.748Z" fill="white" fill-opacity="0.2"/>
<path d="M168.36 201.633H159.356V210.666H168.36V201.633Z" fill="#F29294"/>
<path d="M169.249 200.744V201.633V210.666V211.554H168.36H159.356H158.467V210.666V201.633V200.744H159.356H168.36H169.249ZM160.245 209.748H167.471V202.522H160.245V209.748Z" fill="white" fill-opacity="0.2"/>
<path d="M198.814 215.569H189.81V224.602H198.814V215.569Z" fill="#F29294"/>
<path d="M199.703 214.709V215.598V224.631V225.52H198.814H189.81H188.921V224.631V215.598V214.709H189.81H198.814H199.703ZM190.699 223.713H197.925V216.487H190.699V223.713Z" fill="white" fill-opacity="0.2"/>
<path d="M183.587 215.569H174.583V224.602H183.587V215.569Z" fill="#F29294"/>
<path d="M184.476 214.709V215.598V224.631V225.52H183.587H174.583H173.694V224.631V215.598V214.709H174.583H183.587H184.476ZM175.472 223.713H182.698V216.487H175.472V223.713Z" fill="white" fill-opacity="0.2"/>
<path d="M168.36 215.569H159.356V224.602H168.36V215.569Z" fill="#F29294"/>
<path d="M169.249 214.709V215.598V224.631V225.52H168.36H159.356H158.467V224.631V215.598V214.709H159.356H168.36H169.249ZM160.245 223.713H167.471V216.487H160.245V223.713Z" fill="white" fill-opacity="0.2"/>
<path d="M198.814 229.534H189.81V238.567H198.814V229.534Z" fill="#F29294"/>
<path d="M199.703 228.645V229.534V238.567V239.456H198.814H189.81H188.921V238.567V229.534V228.645H189.81H198.814H199.703ZM190.699 237.65H197.925V230.423H190.699V237.65Z" fill="white" fill-opacity="0.2"/>
<path d="M183.587 229.534H174.583V238.567H183.587V229.534Z" fill="#F29294"/>
<path d="M184.476 228.645V229.534V238.567V239.456H183.587H174.583H173.694V238.567V229.534V228.645H174.583H183.587H184.476ZM175.472 237.65H182.698V230.423H175.472V237.65Z" fill="white" fill-opacity="0.2"/>
<path d="M168.36 229.534H159.356V238.567H168.36V229.534Z" fill="#F29294"/>
<path d="M169.249 228.645V229.534V238.567V239.456H168.36H159.356H158.467V238.567V229.534V228.645H159.356H168.36H169.249ZM160.245 237.65H167.471V230.423H160.245V237.65Z" fill="white" fill-opacity="0.2"/>
<path d="M198.814 243.471H189.81V252.475H198.814V243.471Z" fill="#F29294"/>
<path d="M199.703 242.611V243.5V252.504V253.422H198.814H189.81H188.921V252.504V243.5V242.611H189.81H198.814H199.703ZM190.699 251.586H197.925V244.36H190.699V251.586Z" fill="white" fill-opacity="0.2"/>
<path d="M183.587 243.471H174.583V252.475H183.587V243.471Z" fill="#F29294"/>
<path d="M184.476 242.611V243.5V252.504V253.422H183.587H174.583H173.694V252.504V243.5V242.611H174.583H183.587H184.476ZM175.472 251.586H182.698V244.36H175.472V251.586Z" fill="white" fill-opacity="0.2"/>
<path d="M168.36 243.471H159.356V252.475H168.36V243.471Z" fill="#F29294"/>
<path d="M169.249 242.611V243.5V252.504V253.422H168.36H159.356H158.467V252.504V243.5V242.611H159.356H168.36H169.249ZM160.245 251.586H167.471V244.36H160.245V251.586Z" fill="white" fill-opacity="0.2"/>
<path d="M198.814 257.436H189.81V266.441H198.814V257.436Z" fill="#F29294"/>
<path d="M199.703 256.547V257.436V266.441V267.358H198.814H189.81H188.921V266.441V257.436V256.547H189.81H198.814H199.703ZM190.699 265.552H197.925V258.325H190.699V265.552Z" fill="white" fill-opacity="0.2"/>
<path d="M183.587 257.436H174.583V266.441H183.587V257.436Z" fill="#F29294"/>
<path d="M184.476 256.547V257.436V266.441V267.358H183.587H174.583H173.694V266.441V257.436V256.547H174.583H183.587H184.476ZM175.472 265.552H182.698V258.325H175.472V265.552Z" fill="white" fill-opacity="0.2"/>
<path d="M168.36 257.436H159.356V266.441H168.36V257.436Z" fill="#F29294"/>
<path d="M169.249 256.547V257.436V266.441V267.358H168.36H159.356H158.467V266.441V257.436V256.547H159.356H168.36H169.249ZM160.245 265.552H167.471V258.325H160.245V265.552Z" fill="white" fill-opacity="0.2"/>
<path fill-rule="evenodd" clip-rule="evenodd" d="M77.5431 198.134H73.9299V271.889H86.1747H87.0349H99.251V198.134H95.6378V162.862H91.9099V135.448L86.5761 131.921L81.271 135.448V162.862H77.5431V198.134Z" fill="#F29294"/>
<path d="M76.6828 162.862V161.973H77.5718H80.382V135.448V134.989L80.7835 134.702L86.1172 131.147L86.6334 130.831L87.1496 131.147L92.4833 134.702L92.8848 134.989V135.448V162.002H95.6951H96.584V162.891V197.274H99.3082H100.197V198.163V271.918V272.807H99.3082H87.0922H86.2033H73.9872H73.0983V271.918V198.134V197.245H73.9872H76.7115V162.862H76.6828ZM74.8188 271H86.1746H87.0635H98.3906V199.023H95.6664H94.7488V198.134V163.751H91.9385H91.0208V162.862V135.907L86.5761 132.953L82.1313 135.936V162.891V163.78H81.271H78.4607V198.163V199.052H77.5431H74.8188V271Z" fill="white" fill-opacity="0.2"/>
<path d="M93.7163 202.665H91.967V268.304H93.7163V202.665Z" fill="white" fill-opacity="0.2"/>
<path d="M87.4649 202.665H85.7157V268.304H87.4649V202.665Z" fill="white" fill-opacity="0.2"/>
<path d="M81.2136 202.665H79.4644V268.304H81.2136V202.665Z" fill="white" fill-opacity="0.2"/>
<path d="M90.5907 167.565H88.8127V195.037H90.5907V167.565Z" fill="white" fill-opacity="0.2"/>
<path d="M84.3392 167.565H82.5613V195.037H84.3392V167.565Z" fill="white" fill-opacity="0.2"/>
<path fill-rule="evenodd" clip-rule="evenodd" d="M65.7285 115.203L9.78137 148.266V271.889H65.7285V115.203Z" fill="#F29294"/>
<path d="M66.6175 113.625V115.174V271.86V272.749H65.6998H9.7814H8.86377V271.86V148.266V147.779L9.32259 147.521L65.241 114.428L66.6175 113.625ZM10.6704 271H64.8396V116.723L10.6704 148.782V271Z" fill="white" fill-opacity="0.2"/>
<path d="M56.466 155.005H47.6338V163.866H56.466V155.005Z" fill="#F29294"/>
<path d="M57.3837 154.116V155.034V163.895V164.784H56.4661H47.6338H46.7449V163.895V155.034V154.116H47.6338H56.4661H57.3837ZM48.5228 162.977H55.6058V155.894H48.5228V162.977Z" fill="white" fill-opacity="0.2"/>
<path d="M42.1854 155.005H33.3245V163.866H42.1854V155.005Z" fill="#F29294"/>
<path d="M43.0743 154.116V155.034V163.895V164.784H42.1853H33.3244H32.4354V163.895V155.034V154.116H33.3244H42.1853H43.0743ZM34.2134 162.977H41.2677V155.894H34.2134V162.977Z" fill="white" fill-opacity="0.2"/>
<path d="M27.876 155.005H19.0437V163.866H27.876V155.005Z" fill="#F29294"/>
<path d="M28.765 154.116V155.034V163.895V164.784H27.876H19.0437H18.1548V163.895V155.034V154.116H19.0437H27.876H28.765ZM19.904 162.977H26.987V155.894H19.904V162.977Z" fill="white" fill-opacity="0.2"/>
<path d="M56.466 169.372H47.6338V178.233H56.466V169.372Z" fill="#F29294"/>
<path d="M57.3837 168.483V169.372V178.233V179.15H56.4661H47.6338H46.7449V178.233V169.372V168.483H47.6338H56.4661H57.3837ZM48.5228 177.315H55.6058V170.232H48.5228V177.315Z" fill="white" fill-opacity="0.2"/>
<path d="M42.1854 169.372H33.3245V178.233H42.1854V169.372Z" fill="#F29294"/>
<path d="M43.0743 168.483V169.372V178.233V179.15H42.1853H33.3244H32.4354V178.233V169.372V168.483H33.3244H42.1853H43.0743ZM34.2134 177.315H41.2677V170.232H34.2134V177.315Z" fill="white" fill-opacity="0.2"/>
<path d="M27.876 169.372H19.0437V178.233H27.876V169.372Z" fill="#F29294"/>
<path d="M28.765 168.483V169.372V178.233V179.15H27.876H19.0437H18.1548V178.233V169.372V168.483H19.0437H27.876H28.765ZM19.904 177.315H26.987V170.232H19.904V177.315Z" fill="white" fill-opacity="0.2"/>
<path d="M56.466 183.739H47.6338V192.6H56.466V183.739Z" fill="#F29294"/>
<path d="M57.3837 182.821V183.739V192.6V193.489H56.4661H47.6338H46.7449V192.6V183.739V182.821H47.6338H56.4661H57.3837ZM48.5228 191.711H55.6058V184.628H48.5228V191.711Z" fill="white" fill-opacity="0.2"/>
<path d="M42.1854 183.739H33.3245V192.6H42.1854V183.739Z" fill="#F29294"/>
<path d="M43.0743 182.821V183.739V192.6V193.489H42.1853H33.3244H32.4354V192.6V183.739V182.821H33.3244H42.1853H43.0743ZM34.2134 191.711H41.2677V184.628H34.2134V191.711Z" fill="white" fill-opacity="0.2"/>
<path d="M27.876 183.739H19.0437V192.6H27.876V183.739Z" fill="#F29294"/>
<path d="M28.765 182.821V183.739V192.6V193.489H27.876H19.0437H18.1548V192.6V183.739V182.821H19.0437H27.876H28.765ZM19.904 191.711H26.987V184.628H19.904V191.711Z" fill="white" fill-opacity="0.2"/>
<path d="M56.466 198.077H47.6338V206.938H56.466V198.077Z" fill="#F29294"/>
<path d="M57.3837 197.216V198.105V206.966V207.884H56.4661H47.6338H46.7449V206.966V198.105V197.216H47.6338H56.4661H57.3837ZM48.5228 206.049H55.6058V198.966H48.5228V206.049Z" fill="white" fill-opacity="0.2"/>
<path d="M42.1854 198.077H33.3245V206.938H42.1854V198.077Z" fill="#F29294"/>
<path d="M43.0743 197.216V198.105V206.966V207.884H42.1853H33.3244H32.4354V206.966V198.105V197.216H33.3244H42.1853H43.0743ZM34.2134 206.049H41.2677V198.966H34.2134V206.049Z" fill="white" fill-opacity="0.2"/>
<path d="M27.876 198.077H19.0437V206.938H27.876V198.077Z" fill="#F29294"/>
<path d="M28.765 197.216V198.105V206.966V207.884H27.876H19.0437H18.1548V206.966V198.105V197.216H19.0437H27.876H28.765ZM19.904 206.049H26.987V198.966H19.904V206.049Z" fill="white" fill-opacity="0.2"/>
<path d="M56.466 212.472H47.6338V221.333H56.466V212.472Z" fill="#F29294"/>
<path d="M57.3837 211.554V212.472V221.333V222.222H56.4661H47.6338H46.7449V221.333V212.472V211.554H47.6338H56.4661H57.3837ZM48.5228 220.444H55.6058V213.361H48.5228V220.444Z" fill="white" fill-opacity="0.2"/>
<path d="M42.1854 212.472H33.3245V221.333H42.1854V212.472Z" fill="#F29294"/>
<path d="M43.0743 211.554V212.472V221.333V222.222H42.1853H33.3244H32.4354V221.333V212.472V211.554H33.3244H42.1853H43.0743ZM34.2134 220.444H41.2677V213.361H34.2134V220.444Z" fill="white" fill-opacity="0.2"/>
<path d="M27.876 212.472H19.0437V221.333H27.876V212.472Z" fill="#F29294"/>
<path d="M28.765 211.554V212.472V221.333V222.222H27.876H19.0437H18.1548V221.333V212.472V211.554H19.0437H27.876H28.765ZM19.904 220.444H26.987V213.361H19.904V220.444Z" fill="white" fill-opacity="0.2"/>
<path d="M56.466 226.81H47.6338V235.671H56.466V226.81Z" fill="#F29294"/>
<path d="M57.3837 225.95V226.839V235.7V236.617H56.4661H47.6338H46.7449V235.7V226.839V225.95H47.6338H56.4661H57.3837ZM48.5228 234.782H55.6058V227.699H48.5228V234.782Z" fill="white" fill-opacity="0.2"/>
<path d="M42.1854 226.81H33.3245V235.671H42.1854V226.81Z" fill="#F29294"/>
<path d="M43.0743 225.95V226.839V235.7V236.617H42.1853H33.3244H32.4354V235.7V226.839V225.95H33.3244H42.1853H43.0743ZM34.2134 234.782H41.2677V227.699H34.2134V234.782Z" fill="white" fill-opacity="0.2"/>
<path d="M27.876 226.81H19.0437V235.671H27.876V226.81Z" fill="#F29294"/>
<path d="M28.765 225.95V226.839V235.7V236.617H27.876H19.0437H18.1548V235.7V226.839V225.95H19.0437H27.876H28.765ZM19.904 234.782H26.987V227.699H19.904V234.782Z" fill="white" fill-opacity="0.2"/>
<path d="M56.466 241.206H47.6338V250.066H56.466V241.206Z" fill="#F29294"/>
<path d="M57.3837 240.288V241.206V250.066V250.955H56.4661H47.6338H46.7449V250.066V241.206V240.288H47.6338H56.4661H57.3837ZM48.5228 249.149H55.6058V242.066H48.5228V249.149Z" fill="white" fill-opacity="0.2"/>
<path d="M42.1854 241.206H33.3245V250.066H42.1854V241.206Z" fill="#F29294"/>
<path d="M43.0743 240.288V241.206V250.066V250.955H42.1853H33.3244H32.4354V250.066V241.206V240.288H33.3244H42.1853H43.0743ZM34.2134 249.149H41.2677V242.066H34.2134V249.149Z" fill="white" fill-opacity="0.2"/>
<path d="M27.876 241.206H19.0437V250.066H27.876V241.206Z" fill="#F29294"/>
<path d="M28.765 240.288V241.206V250.066V250.955H27.876H19.0437H18.1548V250.066V241.206V240.288H19.0437H27.876H28.765ZM19.904 249.149H26.987V242.066H19.904V249.149Z" fill="white" fill-opacity="0.2"/>
<path d="M56.466 255.544H47.6338V264.405H56.466V255.544Z" fill="#F29294"/>
<path d="M57.3837 254.655V255.544V264.405V265.322H56.4661H47.6338H46.7449V264.405V255.544V254.655H47.6338H56.4661H57.3837ZM48.5228 263.516H55.6058V256.433H48.5228V263.516Z" fill="white" fill-opacity="0.2"/>
<path d="M42.1854 255.544H33.3245V264.405H42.1854V255.544Z" fill="#F29294"/>
<path d="M43.0743 254.655V255.544V264.405V265.322H42.1853H33.3244H32.4354V264.405V255.544V254.655H33.3244H42.1853H43.0743ZM34.2134 263.516H41.2677V256.433H34.2134V263.516Z" fill="white" fill-opacity="0.2"/>
<path d="M27.876 255.544H19.0437V264.405H27.876V255.544Z" fill="#F29294"/>
<path d="M28.765 254.655V255.544V264.405V265.322H27.876H19.0437H18.1548V264.405V255.544V254.655H19.0437H27.876H28.765ZM19.904 263.516H26.987V256.433H19.904V263.516Z" fill="white" fill-opacity="0.2"/>
<path fill-rule="evenodd" clip-rule="evenodd" d="M279.509 220.587H255.048V214.135H220.78V220.587H196.32V271.889H279.509V220.587Z" fill="#F29294"/>
<path d="M280.398 219.698V220.587V271.889V272.778H279.509H196.348H195.459V271.889V220.587V219.698H196.348H219.92V214.107V213.218H220.809H255.077H255.966V214.107V219.698H279.538H280.398ZM254.131 221.476V220.587V214.996H221.698V220.587V221.476H220.78H197.208V271.029H278.62V221.476H255.048H254.131Z" fill="white" fill-opacity="0.2"/>
<path d="M269.845 231.054H264.311V236.589H269.845V231.054Z" fill="white" fill-opacity="0.2"/>
<path d="M260.038 231.054H254.532V236.589H260.038V231.054Z" fill="white" fill-opacity="0.2"/>
<path d="M250.288 231.054H244.754V236.589H250.288V231.054Z" fill="white" fill-opacity="0.2"/>
<path d="M269.845 240.46H264.311V245.994H269.845V240.46Z" fill="white" fill-opacity="0.2"/>
<path d="M260.038 240.46H254.532V245.994H260.038V240.46Z" fill="white" fill-opacity="0.2"/>
<path d="M250.288 240.46H244.754V245.994H250.288V240.46Z" fill="white" fill-opacity="0.2"/>
<path d="M269.845 249.894H264.311V255.4H269.845V249.894Z" fill="white" fill-opacity="0.2"/>
<path d="M260.038 249.894H254.532V255.4H260.038V249.894Z" fill="white" fill-opacity="0.2"/>
<path d="M250.288 249.894H244.754V255.4H250.288V249.894Z" fill="white" fill-opacity="0.2"/>
<path d="M269.845 259.3H264.311V264.835H269.845V259.3Z" fill="white" fill-opacity="0.2"/>
<path d="M260.038 259.3H254.532V264.835H260.038V259.3Z" fill="white" fill-opacity="0.2"/>
<path d="M250.288 259.3H244.754V264.835H250.288V259.3Z" fill="white" fill-opacity="0.2"/>
<path d="M231.104 231.054H225.569V236.589H231.104V231.054Z" fill="white" fill-opacity="0.2"/>
<path d="M221.296 231.054H215.791V236.589H221.296V231.054Z" fill="white" fill-opacity="0.2"/>
<path d="M211.547 231.054H206.012V236.589H211.547V231.054Z" fill="white" fill-opacity="0.2"/>
<path d="M231.104 240.46H225.569V245.994H231.104V240.46Z" fill="white" fill-opacity="0.2"/>
<path d="M221.296 240.46H215.791V245.994H221.296V240.46Z" fill="white" fill-opacity="0.2"/>
<path d="M211.547 240.46H206.012V245.994H211.547V240.46Z" fill="white" fill-opacity="0.2"/>
<path d="M231.104 249.894H225.569V255.4H231.104V249.894Z" fill="white" fill-opacity="0.2"/>
<path d="M221.296 249.894H215.791V255.4H221.296V249.894Z" fill="white" fill-opacity="0.2"/>
<path d="M211.547 249.894H206.012V255.4H211.547V249.894Z" fill="white" fill-opacity="0.2"/>
<path d="M231.104 259.3H225.569V264.835H231.104V259.3Z" fill="white" fill-opacity="0.2"/>
<path d="M221.296 259.3H215.791V264.835H221.296V259.3Z" fill="white" fill-opacity="0.2"/>
<path d="M211.547 259.3H206.012V264.835H211.547V259.3Z" fill="white" fill-opacity="0.2"/>
<path fill-rule="evenodd" clip-rule="evenodd" d="M14.2834 268.276C15.7746 269.05 15.7459 270.685 15.9467 271.774H18.3841C18.5562 269.996 19.2731 268.62 20.4775 267.702C19.1297 268.219 18.2408 269.194 17.868 270.513C17.4665 268.907 17.7533 267.043 18.6709 264.892C17.5525 265.781 16.8643 267.674 16.6062 270.599C16.0614 269.079 15.2871 268.333 14.2834 268.276Z" fill="white" fill-opacity="0.2"/>
<path fill-rule="evenodd" clip-rule="evenodd" d="M228.982 266.785C230.846 267.76 230.788 269.767 231.046 271.115H234.057C234.287 268.935 235.147 267.244 236.638 266.068C234.946 266.756 233.885 267.903 233.398 269.566C232.91 267.588 233.254 265.265 234.373 262.598C232.996 263.688 232.165 266.039 231.849 269.652C231.19 267.788 230.243 266.842 228.982 266.785Z" fill="white" fill-opacity="0.2"/>
<path fill-rule="evenodd" clip-rule="evenodd" d="M116.284 241.263L123.109 246.396L129.934 251.529L136.759 246.396L143.555 241.263L150.008 246.081V241.406H151.786V247.428L157.234 251.529H154.653V271.889H105.043V251.529H102.635L109.431 246.396L116.284 241.263Z" fill="#F29294"/>
<path d="M110.004 247.113L105.273 250.669H105.932V251.558V271.029H153.764V251.558V250.669H154.567L151.241 248.145L150.897 247.887V247.428V242.267H150.868V246.081V247.858L149.463 246.797L143.556 242.381L137.275 247.113L130.451 252.246L129.934 252.418L129.418 252.246L122.593 247.113L116.285 242.381L110.004 247.113ZM129.934 250.411L136.214 245.679L143.039 240.546L143.556 240.145L144.072 240.546L149.061 244.303V241.378V240.46H149.979H151.757H152.646V241.378V246.969L157.75 250.783L157.234 252.361H155.542V271.832V272.721H154.625H105.015H104.097V271.832V252.361H102.577L102.061 250.783L108.857 245.65L115.682 240.517L116.198 240.116L116.715 240.517L123.54 245.65L129.934 250.411Z" fill="white" fill-opacity="0.2"/>
<path d="M150.151 254.139H144.588V265.15H150.151V254.139Z" fill="#F29294"/>
<path d="M151.04 253.25V254.139V265.15V266.039H150.151H144.588H143.699V265.15V254.139V253.25H144.588H150.151H151.04ZM145.505 264.261H149.291V254.999H145.505V264.261Z" fill="white" fill-opacity="0.2"/>
<path d="M141.778 254.139H136.214V265.15H141.778V254.139Z" fill="#F29294"/>
<path d="M142.638 253.25V254.139V265.15V266.039H141.749H136.186H135.268V265.15V254.139V253.25H136.186H141.749H142.638ZM137.103 264.261H140.889V254.999H137.103V264.261Z" fill="white" fill-opacity="0.2"/>
<path d="M123.654 254.139H118.091V265.15H123.654V254.139Z" fill="#F29294"/>
<path d="M124.543 253.25V254.139V265.15V266.039H123.654H118.091H117.202V265.15V254.139V253.25H118.091H123.654H124.543ZM118.98 264.261H122.765V254.999H118.98V264.261Z" fill="white" fill-opacity="0.2"/>
<path d="M115.223 254.139H109.66V265.15H115.223V254.139Z" fill="#F29294"/>
<path d="M116.112 253.25V254.139V265.15V266.039H115.223H109.66H108.8V265.15V254.139V253.25H109.689H115.252H116.112ZM110.578 264.261H114.363V254.999H110.578V264.261Z" fill="white" fill-opacity="0.2"/>
<path fill-rule="evenodd" clip-rule="evenodd" d="M154.28 267.674C155.886 268.534 155.829 270.255 156.058 271.43H158.668C158.869 269.509 159.614 268.075 160.933 267.043C159.442 267.616 158.524 268.649 158.094 270.054C157.693 268.333 157.98 266.326 158.983 264.032C157.779 264.949 157.062 267.014 156.775 270.168C156.173 268.563 155.341 267.731 154.28 267.674Z" fill="white" fill-opacity="0.2"/>
<path fill-rule="evenodd" clip-rule="evenodd" d="M159.815 271.43C159.987 270.082 160.79 269.079 162.195 268.419C160.933 268.477 159.958 269.165 159.241 270.57C159.155 269.853 158.782 269.193 158.123 268.649C158.582 269.796 158.754 270.771 158.668 271.43H159.815Z" fill="white" fill-opacity="0.2"/>
<path fill-rule="evenodd" clip-rule="evenodd" d="M170.253 241.808L168.389 232.488L166.41 241.808V271.918H170.253V241.808Z" fill="#F29294"/>
<path d="M171.113 241.808V271.889V272.749H170.253H166.382H165.493V271.889V241.808L165.521 241.607L167.5 232.316L169.192 232.345L171.085 241.636L171.113 241.808ZM167.242 241.894V271.057H169.364V241.865L168.332 236.732L167.242 241.894Z" fill="white" fill-opacity="0.2"/>
<path fill-rule="evenodd" clip-rule="evenodd" d="M161.421 232.775C161.105 232.459 160.675 232.431 160.331 232.66C159.987 232.89 159.843 233.32 160.016 233.692C157.463 233.578 155.055 235.012 153.965 237.334C152.846 239.628 153.162 242.381 154.825 244.36C154.08 245.077 153.735 246.138 153.936 247.17C154.137 248.174 154.854 249.034 155.8 249.436C155.284 251.242 155.771 253.192 157.033 254.597C158.295 255.974 160.159 256.633 162.023 256.318C162.195 256.92 162.625 257.436 163.227 257.637C163.829 257.866 164.489 257.78 165.005 257.436C165.435 258.411 166.324 259.071 167.385 259.128C168.446 259.214 169.421 258.641 169.937 257.752C171.4 258.325 173.006 258.268 174.411 257.637C175.816 257.006 176.906 255.773 177.365 254.311C177.852 254.454 178.368 254.311 178.684 253.966C178.999 253.594 179.114 253.049 178.942 252.619C181.351 251.529 182.498 248.747 181.609 246.253C182.813 245.335 183.444 243.872 183.243 242.353C183.042 240.833 182.039 239.6 180.634 239.026C180.806 237.076 179.544 235.27 177.709 234.725C177.938 233.893 177.623 233.004 176.934 232.517C176.218 232.001 175.271 231.972 174.554 232.431C174.468 231.054 173.522 229.85 172.174 229.477C170.826 229.104 169.393 229.649 168.647 230.825C167.443 230.079 165.951 229.85 164.604 230.223C163.227 230.595 162.08 231.513 161.421 232.775Z" fill="#F29294"/>
<path d="M161.163 231.857C161.478 231.37 161.879 230.94 162.31 230.624C162.912 230.108 163.629 229.735 164.432 229.535C165.235 229.305 166.037 229.276 166.812 229.391C167.385 229.506 167.93 229.678 168.475 229.907C168.905 229.448 169.393 229.133 169.966 228.904C170.74 228.617 171.601 228.56 172.404 228.789C173.235 229.018 173.923 229.506 174.468 230.108C174.784 230.481 175.013 230.94 175.185 231.427C175.415 231.37 175.644 231.341 175.873 231.341C176.418 231.37 176.992 231.542 177.422 231.857C177.909 232.201 178.254 232.689 178.426 233.205C178.54 233.52 178.569 233.865 178.569 234.18C179.401 234.553 180.089 235.126 180.605 235.872C181.121 236.646 181.437 237.564 181.465 238.51C182.096 238.826 182.612 239.284 183.042 239.829C183.559 240.517 183.931 241.32 184.046 242.181C184.161 243.07 184.046 243.93 183.731 244.733C183.444 245.364 183.042 245.937 182.555 246.425C182.899 247.686 182.784 249.006 182.297 250.181C181.809 251.3 180.978 252.303 179.859 252.934C179.859 253.078 179.859 253.25 179.831 253.393C179.745 253.766 179.601 254.11 179.315 254.397C179.056 254.683 178.712 254.884 178.368 254.97C178.254 255.028 178.081 255.028 177.938 255.056C177.651 255.658 177.307 256.232 176.848 256.719C176.304 257.379 175.587 257.895 174.784 258.239C174.009 258.612 173.149 258.813 172.26 258.842C171.601 258.842 170.941 258.755 170.282 258.555C169.995 258.899 169.651 259.186 169.278 259.386C168.704 259.702 168.074 259.845 167.385 259.816C166.726 259.759 166.095 259.53 165.607 259.186C165.292 258.956 164.976 258.669 164.747 258.325C164.604 258.383 164.432 258.44 164.231 258.44C163.829 258.497 163.399 258.44 162.998 258.297C162.596 258.153 162.252 257.895 161.937 257.58C161.822 257.408 161.679 257.264 161.593 257.064C160.732 257.15 159.872 257.035 159.098 256.748C158.123 256.433 157.205 255.831 156.517 255.028C155.8 254.253 155.313 253.307 155.055 252.275C154.882 251.472 154.854 250.611 154.997 249.78C154.624 249.55 154.28 249.264 154.051 248.92C153.649 248.432 153.363 247.859 153.248 247.228C153.133 246.597 153.162 245.966 153.334 245.364C153.449 244.962 153.649 244.589 153.879 244.245C153.162 243.27 152.76 242.123 152.617 240.976C152.445 239.628 152.674 238.223 153.305 236.933C153.936 235.643 154.911 234.61 156.058 233.922C157.005 233.348 158.123 233.004 159.241 232.918L159.27 232.861C159.356 232.517 159.585 232.173 159.872 231.972C160.188 231.743 160.589 231.657 160.933 231.685C161.019 231.829 161.105 231.829 161.163 231.857ZM160.818 233.234C160.79 233.234 160.761 233.262 160.732 233.262C160.704 233.291 160.675 233.32 160.675 233.348C160.646 233.377 160.675 233.406 160.675 233.434L161.163 234.524L160.016 234.467C158.897 234.409 157.779 234.725 156.861 235.27C155.915 235.815 155.141 236.646 154.624 237.679C154.108 238.711 153.936 239.829 154.108 240.919C154.223 242.009 154.682 243.07 155.427 243.901L155.857 244.417L155.37 244.876C155.055 245.163 154.854 245.507 154.768 245.88C154.653 246.253 154.624 246.625 154.682 247.027C154.768 247.428 154.94 247.773 155.198 248.088C155.456 248.403 155.771 248.633 156.116 248.805L156.718 249.063L156.546 249.665C156.316 250.439 156.316 251.271 156.488 252.017C156.66 252.791 157.033 253.536 157.607 254.139C158.152 254.741 158.84 255.171 159.585 255.458C160.331 255.716 161.134 255.773 161.937 255.63L162.596 255.515L162.768 256.175C162.826 256.347 162.912 256.519 163.055 256.691C163.17 256.834 163.371 256.978 163.543 257.006C163.743 257.092 163.944 257.121 164.116 257.092C164.317 257.092 164.518 257.006 164.661 256.92L165.378 256.433L165.693 257.207C165.837 257.551 166.095 257.867 166.41 258.096C166.726 258.297 167.07 258.44 167.471 258.469C167.844 258.497 168.217 258.383 168.561 258.211C168.905 258.039 169.192 257.752 169.393 257.436L169.708 256.892L170.282 257.15C170.912 257.408 171.601 257.494 172.232 257.494C172.891 257.465 173.551 257.322 174.153 257.006C174.755 256.719 175.3 256.318 175.759 255.831C176.189 255.343 176.533 254.741 176.734 254.11L176.963 253.422L177.651 253.651C177.737 253.68 177.852 253.68 177.967 253.651C178.081 253.622 178.167 253.536 178.254 253.479C178.34 253.393 178.368 253.307 178.368 253.192C178.397 253.078 178.397 252.992 178.34 252.877L178.053 252.217L178.712 251.931C179.745 251.443 180.519 250.611 180.92 249.636C181.322 248.69 181.379 247.543 181.006 246.482L180.806 245.966L181.236 245.651C181.752 245.306 182.125 244.79 182.354 244.245C182.584 243.672 182.67 243.07 182.584 242.439C182.498 241.808 182.268 241.234 181.867 240.776C181.494 240.288 180.978 239.915 180.404 239.657L179.888 239.485L179.945 238.94C180.031 238.137 179.802 237.392 179.372 236.761C178.942 236.13 178.311 235.643 177.537 235.442L176.82 235.241L177.02 234.553C177.106 234.266 177.106 234.008 176.992 233.721C176.906 233.463 176.734 233.234 176.504 233.09C176.275 232.918 175.988 232.804 175.73 232.804C175.443 232.804 175.214 232.89 174.956 233.033L173.923 233.721L173.895 232.459C173.866 231.915 173.665 231.398 173.35 230.997C173.034 230.596 172.576 230.28 172.031 230.137C171.515 230.022 170.941 230.022 170.482 230.223C169.966 230.395 169.565 230.739 169.278 231.169L168.876 231.771L168.274 231.398C167.758 231.083 167.185 230.882 166.582 230.768C166.009 230.682 165.407 230.71 164.804 230.882C164.231 231.026 163.686 231.341 163.199 231.685C162.74 232.058 162.338 232.545 162.08 233.062L161.593 233.951L160.904 233.234C160.876 233.262 160.847 233.234 160.818 233.234Z" fill="white" fill-opacity="0.2"/>
<path d="M186.971 256.404H184.677V271.889H186.971V256.404Z" fill="#F29294"/>
<path d="M187.831 255.486V256.404V271.889V272.778H186.942H184.648H183.759V271.889V256.404V255.486H184.648H186.942H187.831ZM185.566 271H186.082V257.264H185.566V271Z" fill="white" fill-opacity="0.2"/>
<path fill-rule="evenodd" clip-rule="evenodd" d="M185.795 236.79C182.182 236.79 178.225 246.826 178.225 252.59C178.225 258.383 181.551 261.107 185.738 261.107C189.925 261.107 193.423 258.383 193.423 252.59C193.423 246.826 189.437 236.79 185.795 236.79Z" fill="#F29294"/>
<path d="M185.795 235.901C187.889 235.901 189.925 238.281 191.473 241.492C193.136 244.934 194.284 249.378 194.284 252.59C194.284 255.572 193.423 257.838 192.018 259.415C190.412 261.164 188.176 262.025 185.709 262.025C183.243 262.025 181.064 261.164 179.544 259.415C178.168 257.866 177.307 255.601 177.307 252.59C177.307 249.407 178.483 244.962 180.146 241.492C181.695 238.309 183.731 235.901 185.795 235.901ZM181.752 242.295C180.204 245.507 179.114 249.636 179.114 252.59C179.114 255.142 179.773 256.978 180.863 258.239C182.039 259.558 183.788 260.218 185.738 260.218C187.688 260.218 189.466 259.558 190.699 258.211C191.817 256.949 192.534 255.085 192.534 252.59C192.534 249.636 191.416 245.507 189.896 242.295C188.606 239.657 187.114 237.678 185.795 237.678C184.505 237.678 182.985 239.657 181.752 242.295Z" fill="white" fill-opacity="0.2"/>
<path fill-rule="evenodd" clip-rule="evenodd" d="M422.861 236.675H356.504H350.167V240.89H356.504V271.889H422.861V240.89H429.198V236.675H422.861Z" fill="#F29294"/>
<path d="M429.198 235.786H430.087V236.675V240.89V241.808H429.198H423.75V271.889V272.778H422.832H356.476H355.587V271.889V241.808H350.138H349.221V240.89V236.675V235.786H350.138H356.476H422.832H429.198ZM351.056 237.535V240.001H356.504H357.422V240.89V271H422.001V240.89V240.001H422.89H428.367V237.535H422.89H356.533H351.056Z" fill="white" fill-opacity="0.2"/>
<path d="M376.578 250.841V251.5V263.659V264.319H375.889H369.523H368.893V263.659V251.5V250.841H369.552H375.918H376.578ZM370.212 262.971H375.23V252.16H370.212V262.971Z" fill="white" fill-opacity="0.2"/>
<path d="M368.778 250.841V251.5V263.659V264.319H368.118H361.752H361.093V263.659V251.5V250.841H361.752H368.118H368.778ZM362.469 262.971H367.487V252.16H362.469V262.971Z" fill="white" fill-opacity="0.2"/>
<path d="M-10.722 176.914V178.434V271.918V272.807H-9.83308H2.4403H3.32926V271.918V185.201V184.685L2.87044 184.427L-9.40294 177.631L-10.722 176.914ZM1.55134 271H-8.9728V179.896L1.55134 185.717V271Z" fill="white" fill-opacity="0.2"/>
<path fill-rule="evenodd" clip-rule="evenodd" d="M-9.51769 253.221V271.975H14.2835V253.221H17.6099L2.3829 242.008L-12.8441 253.221H-9.51769Z" fill="#F29294"/>
<path d="M-12.8442 253.995L-13.3317 252.561L1.89536 241.349L2.38285 241.005L2.87035 241.349L18.0974 252.561L17.6099 253.995H15.0864V272.004V272.778H14.2834H-9.51773H-10.3207V272.004V253.995H-12.8442ZM13.4805 271.172V253.192V252.389H14.2834H15.2011L2.38285 242.955L-10.4354 252.389H-9.51773H-8.74348V253.192V271.172H13.4805Z" fill="white" fill-opacity="0.2"/>
<path d="M10.1828 256.433H4.04614V265.207H10.1828V256.433Z" fill="#F29294"/>
<path d="M0.748262 256.433H-5.38843V265.207H0.748262V256.433Z" fill="#F29294"/>
<path d="M10.957 255.63V256.433V265.207V266.01H10.1828H4.04609H3.24316V265.207V256.433V255.63H4.04609H10.1828H10.957ZM4.84902 264.405H9.37985V257.207H4.84902V264.405Z" fill="white" fill-opacity="0.2"/>
<path d="M1.49404 255.63V256.433V265.207V266.01H0.719784H-5.41691H-6.19116V265.207V256.433V255.63H-5.38823H0.748456H1.49404ZM-4.58531 264.405H-0.0544724V257.207H-4.58531V264.405Z" fill="white" fill-opacity="0.2"/>
<path fill-rule="evenodd" clip-rule="evenodd" d="M315.239 247.801L350.511 247.944V270.971H342.769C342.769 270.943 342.769 270.943 342.769 270.914C342.769 268.19 340.561 266.01 337.865 266.01C335.141 266.01 332.961 268.19 332.961 270.914C332.961 270.943 332.961 270.943 332.961 270.971H305.318C305.318 270.943 305.318 270.943 305.318 270.914C305.318 268.19 303.138 266.01 300.414 266.01C297.69 266.01 295.51 268.19 295.51 270.914C295.51 270.943 295.51 270.943 295.51 270.971H289.66C289.116 270.513 288.542 270.082 288.341 269.423C288.083 265.867 288.599 263.114 291.094 262.598C291.41 261.078 292.155 259.53 296.6 258.01C299.439 255.343 302.307 252.676 305.146 250.038C307.87 247.858 310.164 247.801 315.239 247.801Z" fill="#F29294"/>
<path d="M315.239 248.432C312.716 248.432 310.909 248.461 309.418 248.748C307.984 249.006 306.837 249.522 305.576 250.525L297.03 258.497L296.801 258.612C294.679 259.329 293.474 260.046 292.729 260.734C292.069 261.394 291.84 262.053 291.725 262.713L291.61 263.114L291.209 263.2C290.205 263.43 289.603 264.089 289.288 265.064C288.915 266.154 288.857 267.616 288.972 269.28C289.058 269.48 289.202 269.652 289.345 269.824C289.488 269.997 289.689 270.14 289.89 270.341H294.908C295.023 269.022 295.625 267.874 296.485 266.986C297.489 265.982 298.865 265.38 300.414 265.38C301.934 265.38 303.339 265.982 304.343 266.986C305.203 267.874 305.805 269.022 305.92 270.341H332.359C332.474 269.022 333.076 267.874 333.936 266.986C334.94 265.982 336.316 265.38 337.865 265.38C339.413 265.38 340.79 265.982 341.794 266.986C342.654 267.874 343.227 269.022 343.371 270.341H349.88V248.604L315.239 248.432ZM351.142 247.314V247.945V270.972V271.602H350.482H342.74H342.08V270.972V270.914C342.08 269.738 341.593 268.677 340.847 267.903C340.073 267.129 339.012 266.641 337.836 266.641C336.661 266.641 335.6 267.129 334.825 267.903C334.051 268.677 333.564 269.738 333.564 270.914V270.972L333.592 271.602H332.933H305.289H304.629L304.658 270.972V270.914C304.658 269.738 304.171 268.677 303.396 267.903C302.622 267.129 301.561 266.641 300.385 266.641C299.21 266.641 298.149 267.129 297.374 267.903C296.629 268.677 296.141 269.738 296.141 270.914H296.113V270.972L296.141 271.602H295.482H289.632L289.23 271.488C288.915 271.23 288.657 271 288.37 270.742C288.055 270.427 287.854 270.054 287.682 269.624L287.653 269.48C287.538 267.616 287.596 265.953 288.026 264.691C288.456 263.401 289.23 262.483 290.521 262.111C290.693 261.394 291.037 260.619 291.811 259.874C292.643 259.071 293.962 258.268 296.227 257.494L304.658 249.608L304.687 249.579C306.149 248.432 307.468 247.83 309.131 247.514C310.766 247.199 312.63 247.199 315.182 247.199L350.454 247.371H351.142V247.314Z" fill="white" fill-opacity="0.2"/>
<path d="M315.239 248.518C312.716 248.518 310.909 248.518 309.447 248.805C308.013 249.092 306.866 249.579 305.633 250.583L297.088 258.555L296.829 258.698C294.707 259.415 293.503 260.132 292.786 260.82C292.127 261.48 291.926 262.111 291.811 262.741L291.696 263.2L291.209 263.286C290.263 263.487 289.689 264.147 289.345 265.093C288.972 266.183 288.915 267.645 289.03 269.28C289.116 269.452 289.23 269.624 289.374 269.796C289.517 269.939 289.689 270.111 289.89 270.283H294.851C294.965 268.993 295.568 267.846 296.428 266.957C297.46 265.953 298.865 265.322 300.385 265.322C301.934 265.322 303.31 265.953 304.343 266.957C305.203 267.846 305.805 268.993 305.948 270.283H332.244C332.388 268.993 332.99 267.846 333.85 266.957C334.883 265.953 336.259 265.322 337.808 265.322C339.327 265.322 340.733 265.953 341.765 266.957H341.736C342.625 267.846 343.199 268.993 343.342 270.283H349.708V248.661L315.239 248.518ZM351.228 247.256V247.973V271V271.717H350.511H342.769H342.052L342.08 271V270.943H342.052C342.052 269.796 341.593 268.735 340.847 267.989C340.102 267.244 339.041 266.756 337.894 266.756C336.747 266.756 335.686 267.244 334.94 267.989C334.194 268.735 333.707 269.796 333.707 270.943V271L333.736 271.717H333.019H305.375H304.658L304.687 271V270.943C304.687 269.796 304.199 268.735 303.454 267.989C302.708 267.244 301.647 266.756 300.5 266.756C299.353 266.756 298.292 267.244 297.546 267.989C296.801 268.735 296.313 269.796 296.313 270.943V271L296.342 271.717H295.625H289.775L289.316 271.574C289.001 271.344 288.743 271.086 288.456 270.828C288.141 270.513 287.911 270.14 287.768 269.71L287.71 269.538C287.596 267.674 287.653 265.982 288.083 264.72C288.542 263.401 289.316 262.512 290.578 262.111C290.779 261.365 291.094 260.619 291.897 259.874C292.729 259.071 294.077 258.268 296.313 257.465L304.744 249.608L304.801 249.579C306.235 248.403 307.583 247.801 309.275 247.486C310.881 247.17 312.773 247.17 315.326 247.17L350.597 247.342H351.228V247.256Z" fill="white" fill-opacity="0.2"/>
<path fill-rule="evenodd" clip-rule="evenodd" d="M298.693 258.985C303.683 253.995 305.748 249.12 313.548 249.579C313.548 252.733 313.548 255.859 313.548 258.985C308.587 258.985 303.654 258.985 298.693 258.985Z" fill="#F29294"/>
<path d="M312.974 258.44V250.153C307.497 249.981 305.031 252.762 301.991 256.232C301.36 256.949 300.701 257.694 300.012 258.44H312.974ZM301.159 255.486C304.515 251.672 307.181 248.633 313.605 249.034L314.121 249.063V249.579V258.985V259.558H313.576H298.722H297.374L298.32 258.583C299.381 257.522 300.27 256.461 301.159 255.486Z" fill="white" fill-opacity="0.2"/>
<path d="M325.047 249.55H315.096V259.013H325.047V249.55Z" fill="#F29294"/>
<path d="M315.641 258.469H324.473V250.095H315.641V258.469ZM325.62 248.948V249.522V258.985V259.558H325.047H315.096H314.522V258.985V249.522V248.948H315.096H325.047H325.62Z" fill="white" fill-opacity="0.2"/>
<path fill-rule="evenodd" clip-rule="evenodd" d="M337.865 275.015C335.599 275.015 333.735 273.179 333.735 270.914C333.735 268.649 335.599 266.785 337.865 266.785C340.13 266.785 341.966 268.649 341.966 270.914C341.966 273.179 340.13 275.015 337.865 275.015Z" fill="#F29294"/>
<path d="M337.865 275.76C336.546 275.76 335.341 275.215 334.452 274.355C333.592 273.466 333.047 272.262 333.047 270.943C333.047 269.624 333.592 268.391 334.452 267.53C335.341 266.67 336.546 266.125 337.865 266.125C339.184 266.125 340.388 266.67 341.249 267.53C342.138 268.419 342.682 269.624 342.682 270.943C342.682 272.262 342.138 273.495 341.249 274.355C340.417 275.187 339.213 275.76 337.865 275.76ZM340.274 273.351C340.876 272.721 341.249 271.86 341.249 270.943C341.249 270.025 340.876 269.165 340.274 268.534C339.643 267.932 338.782 267.559 337.865 267.559C336.918 267.559 336.087 267.932 335.456 268.534C334.854 269.165 334.452 270.025 334.452 270.943C334.452 271.86 334.854 272.721 335.456 273.351C336.087 273.954 336.918 274.326 337.865 274.326C338.811 274.326 339.643 273.954 340.274 273.351Z" fill="white" fill-opacity="0.2"/>
<path fill-rule="evenodd" clip-rule="evenodd" d="M300.414 275.015C298.148 275.015 296.313 273.179 296.313 270.914C296.313 268.649 298.148 266.785 300.414 266.785C302.679 266.785 304.543 268.649 304.543 270.914C304.543 273.179 302.679 275.015 300.414 275.015Z" fill="#F29294"/>
<path d="M300.414 275.76C299.095 275.76 297.89 275.215 297.001 274.355C296.141 273.466 295.596 272.262 295.596 270.943C295.596 269.624 296.141 268.391 297.001 267.53C297.89 266.67 299.095 266.125 300.414 266.125C301.733 266.125 302.937 266.67 303.826 267.53C304.687 268.419 305.231 269.624 305.231 270.943C305.231 272.262 304.687 273.495 303.826 274.355C302.966 275.187 301.762 275.76 300.414 275.76ZM302.823 273.351C303.425 272.721 303.798 271.86 303.798 270.943C303.798 270.025 303.425 269.165 302.823 268.534C302.192 267.932 301.332 267.559 300.414 267.559C299.496 267.559 298.636 267.932 298.005 268.534C297.403 269.165 297.03 270.025 297.03 270.943C297.03 271.86 297.403 272.721 298.005 273.351C298.636 273.954 299.496 274.326 300.414 274.326C301.36 274.326 302.221 273.954 302.823 273.351Z" fill="white" fill-opacity="0.2"/>
<path fill-rule="evenodd" clip-rule="evenodd" d="M52.4801 260.275C59.8212 255.572 69.1983 254.454 80.6974 256.891C85.6297 258.497 88.5547 260.476 89.5297 262.885C89.4723 264.806 89.8451 266.096 90.5907 266.842C92.0245 268.305 88.1246 272.032 85.2856 272.061H84.7121C84.7981 271.66 84.8842 271.229 84.8842 270.771C84.8842 268.075 82.7048 265.896 79.9805 265.896C77.285 265.896 75.1056 268.075 75.1056 270.771C75.1056 271.229 75.163 271.66 75.2777 272.061H52.8816C52.9676 271.746 52.9963 271.373 52.9963 271.029C52.9963 268.477 50.903 266.383 48.3508 266.383C45.7986 266.383 43.7052 268.477 43.7052 271.029C43.7052 271.373 43.7626 271.746 43.8199 272.061H41.6119C41.2965 271.889 41.0097 271.717 40.7516 271.545C38.8303 270.312 37.9127 269.165 37.9413 268.104C37.7406 264.089 41.6406 261.938 49.6412 261.68C50.2721 261.566 51.2184 261.107 52.4801 260.275Z" fill="#F29294"/>
<path d="M52.8528 260.849C51.5337 261.738 50.5014 262.225 49.7845 262.368H49.6985C49.4404 262.397 49.1823 262.397 48.9529 262.426C45.3684 262.598 42.6728 263.171 40.9809 264.146C39.3751 265.064 38.6295 266.326 38.6582 267.96V268.075V268.104C38.6582 268.476 38.8302 268.878 39.1743 269.337C39.6045 269.853 40.264 270.398 41.153 270.971C41.239 271.057 41.4111 271.143 41.5544 271.229L41.8412 271.401H43.0456C43.0456 271.287 43.0456 271.143 43.0456 271.057C43.0456 269.566 43.6191 268.247 44.5941 267.301C45.5404 266.326 46.8882 265.752 48.3507 265.752C49.8132 265.752 51.1323 266.326 52.1073 267.301C53.0536 268.247 53.6558 269.595 53.6558 271.057C53.6558 271.172 53.6558 271.287 53.6558 271.401H74.4173C74.3886 271.201 74.3599 271 74.3599 270.799C74.3599 269.279 74.9908 267.846 75.9945 266.842C76.9981 265.838 78.4033 265.207 79.9518 265.207C81.5003 265.207 82.8768 265.838 83.8804 266.842C84.8841 267.846 85.515 269.251 85.515 270.799C85.515 271 85.515 271.172 85.4863 271.373C86.6907 271.258 88.0671 270.455 89.0421 269.48C89.3862 269.136 89.7017 268.763 89.9024 268.39C90.0745 268.075 90.1892 267.817 90.1892 267.616C90.1892 267.502 90.1318 267.387 90.0745 267.301C89.6156 266.842 89.3002 266.211 89.0995 265.437C88.8987 264.749 88.8127 263.917 88.8127 262.999C88.3539 261.967 87.4936 260.992 86.1745 260.103C84.7694 259.157 82.8768 258.296 80.5253 257.522C74.8474 256.318 69.7144 256.002 65.0689 256.547C60.5094 257.121 56.4374 258.555 52.8528 260.849ZM64.9542 255.199C69.7144 254.655 75.0195 254.97 80.8408 256.203L80.9268 256.232C83.4503 257.063 85.4576 257.952 86.9774 259.013C88.5546 260.103 89.6443 261.307 90.1605 262.627L90.2178 262.885C90.2178 263.802 90.3039 264.519 90.4473 265.121C90.5906 265.666 90.7914 266.068 91.0781 266.383C91.4222 266.727 91.5943 267.129 91.5943 267.616C91.5943 268.104 91.4222 268.62 91.1355 269.136C90.8487 269.595 90.4759 270.054 90.0458 270.484C88.784 271.717 86.8914 272.778 85.2855 272.807H84.712H83.7944L84.0238 271.918C84.0812 271.746 84.1385 271.574 84.1385 271.373C84.1672 271.229 84.1672 271.029 84.1672 270.828C84.1672 269.681 83.6797 268.62 82.9341 267.874C82.1885 267.129 81.1275 266.641 79.9805 266.641C78.8334 266.641 77.7724 267.129 77.0268 267.874C76.2812 268.62 75.7938 269.681 75.7938 270.828C75.7938 271.029 75.8224 271.229 75.8511 271.373C75.8798 271.574 75.9084 271.746 75.9371 271.918L76.1952 272.807H75.2776H52.8815H52.0212L52.222 271.946C52.2506 271.832 52.2793 271.66 52.308 271.516C52.3367 271.373 52.3367 271.201 52.3367 271.057C52.3367 269.939 51.8779 268.964 51.1896 268.276C50.4727 267.559 49.4691 267.129 48.408 267.129C47.2897 267.129 46.3147 267.559 45.6265 268.276C44.9095 268.993 44.4794 269.968 44.4794 271.057C44.4794 271.201 44.4794 271.373 44.5081 271.516C44.5081 271.66 44.5368 271.832 44.5941 271.946L44.7662 272.807H43.9059H41.6978L41.3537 272.692C41.1817 272.577 41.0383 272.491 40.8949 272.405C40.7515 272.319 40.6081 272.233 40.4648 272.118H40.4361C39.4611 271.459 38.6868 270.799 38.1707 270.197C37.5971 269.509 37.3104 268.821 37.3104 268.104V268.018C37.2244 265.838 38.228 264.146 40.2927 262.971C42.214 261.852 45.0816 261.221 48.8956 261.049C49.125 261.021 49.3544 261.021 49.6125 261.021C50.1573 260.877 50.9889 260.447 52.1359 259.702H52.1646C55.8638 257.293 60.1366 255.773 64.9542 255.199Z" fill="white" fill-opacity="0.2"/>
<path fill-rule="evenodd" clip-rule="evenodd" d="M48.3794 275.043C46.1714 275.043 44.3934 273.266 44.3934 271.057C44.3934 268.849 46.1714 267.071 48.3794 267.071C50.5875 267.071 52.3654 268.849 52.3654 271.057C52.3654 273.266 50.5875 275.043 48.3794 275.043Z" fill="#F29294"/>
<path d="M48.3794 275.76C47.0603 275.76 45.9133 275.244 45.053 274.384C44.1927 273.524 43.6765 272.348 43.6765 271.057C43.6765 269.738 44.1927 268.591 45.053 267.731C45.9133 266.871 47.0603 266.355 48.3794 266.355C49.6698 266.355 50.8456 266.871 51.7058 267.731C52.5661 268.591 53.0823 269.738 53.0823 271.057C53.0823 272.348 52.5661 273.524 51.7058 274.384C50.8169 275.216 49.6412 275.76 48.3794 275.76ZM50.7022 273.38C51.3044 272.778 51.6772 271.946 51.6772 271.029C51.6772 270.111 51.3044 269.308 50.7022 268.677C50.1 268.075 49.2684 267.702 48.3794 267.702C47.4905 267.702 46.6588 268.075 46.0566 268.677C45.4544 269.28 45.0817 270.111 45.0817 271.029C45.0817 271.946 45.4544 272.749 46.0566 273.38C46.6588 273.982 47.4905 274.355 48.3794 274.355C49.2684 274.355 50.1 273.982 50.7022 273.38Z" fill="white" fill-opacity="0.2"/>
<path fill-rule="evenodd" clip-rule="evenodd" d="M79.7224 262.541C82.3319 262.512 83.9091 262.168 84.5113 261.451C74.3313 256.891 62.8895 255.572 53.7131 263.229C54.4014 263.401 61.5131 263.143 75.1629 262.483C76.7401 262.397 78.1739 262.541 79.7224 262.541Z" fill="#F29294"/>
<path d="M79.7224 263.2C79.0915 263.2 78.4893 263.171 77.8871 263.171C76.9981 263.143 76.1378 263.085 75.1915 263.143C68.424 263.487 63.2049 263.716 59.6204 263.86C55.9499 263.974 53.9425 264.003 53.5411 263.888L52.2793 263.516L53.283 262.684C57.6131 259.071 62.4593 257.408 67.4203 257.092C73.2129 256.777 79.2062 258.325 84.7694 260.82L85.601 261.193L85.0275 261.91C84.626 262.397 83.9378 262.713 82.9914 262.913C82.1885 263.114 81.0988 263.2 79.7224 263.2ZM82.7334 261.566C82.8194 261.537 82.8767 261.537 82.9341 261.508C77.9444 259.415 72.668 258.182 67.535 258.469C63.4057 258.727 59.391 259.96 55.6918 262.598C56.6381 262.569 57.9285 262.541 59.6204 262.483C63.1476 262.368 68.3666 262.11 75.1915 261.766C76.1378 261.709 77.0555 261.766 77.9444 261.795C78.5466 261.795 79.1488 261.824 79.751 261.824C80.9841 261.824 81.9878 261.738 82.7334 261.566Z" fill="white" fill-opacity="0.2"/>
<path fill-rule="evenodd" clip-rule="evenodd" d="M79.9805 275.015C77.6578 275.015 75.7651 273.094 75.7651 270.799C75.7651 268.477 77.6864 266.584 79.9805 266.584C82.3033 266.584 84.1959 268.505 84.1959 270.799C84.1959 273.122 82.332 275.015 79.9805 275.015Z" fill="#F29294"/>
<path d="M79.9805 275.703C78.6327 275.703 77.3997 275.158 76.5107 274.269C75.6218 273.38 75.0769 272.147 75.0769 270.799C75.0769 269.452 75.6218 268.219 76.5107 267.33C77.3997 266.441 78.6327 265.896 79.9805 265.896C81.3283 265.896 82.5614 266.441 83.4503 267.33C84.368 268.219 84.9128 269.452 84.9128 270.799C84.9128 272.147 84.368 273.38 83.4503 274.269C82.5614 275.158 81.3283 275.703 79.9805 275.703ZM82.4754 273.294C83.1349 272.663 83.5077 271.774 83.5077 270.799C83.5077 269.825 83.1349 268.936 82.4754 268.305C81.8445 267.674 80.9555 267.272 79.9805 267.272C79.0342 267.272 78.1166 267.674 77.4857 268.305C76.8548 268.936 76.4533 269.825 76.4533 270.799C76.4533 271.774 76.8548 272.663 77.4857 273.294C78.1166 273.925 79.0055 274.327 79.9805 274.327C80.9555 274.327 81.8445 273.925 82.4754 273.294Z" fill="white" fill-opacity="0.2"/>
<path d="M86.2045 120.483C85.6306 120.483 85.0864 120.301 84.6311 119.958C79.8642 116.453 76.5293 111.348 75.2491 105.591C75.2404 105.552 75.2345 105.513 75.2315 105.474C75.0779 104.728 75 103.962 75 103.193C74.9999 97.0213 80.0213 92 86.1934 92C92.3664 92 97.3886 97.0213 97.3886 103.193C97.3886 104.013 97.3007 104.825 97.127 105.608C97.124 105.646 97.1181 105.684 97.1096 105.721C95.8279 111.344 92.5666 116.356 87.9269 119.835L87.5811 120.088C87.5562 120.106 87.5302 120.123 87.5034 120.138C87.1086 120.364 86.6594 120.483 86.2045 120.483ZM76.9078 105.331C78.117 110.65 81.212 115.364 85.6317 118.614C85.9271 118.837 86.3202 118.866 86.6376 118.702L86.9271 118.49C91.2147 115.275 94.2404 110.65 95.4509 105.458C95.4542 105.42 95.4603 105.381 95.469 105.343C95.6311 104.649 95.7131 103.926 95.7131 103.193C95.7131 97.9453 91.4427 93.6755 86.1934 93.6755C80.9452 93.6755 76.6754 97.9453 76.6754 103.193C76.6754 103.88 76.7483 104.566 76.8923 105.23C76.8995 105.264 76.9047 105.297 76.9078 105.331Z" fill="white" fill-opacity="0.25"/>
<path d="M86.1937 107.983C83.5523 107.983 81.4034 105.834 81.4034 103.193C81.4034 100.552 83.5523 98.4022 86.1937 98.4022C88.8359 98.4022 90.9854 100.552 90.9854 103.193C90.9854 105.834 88.8359 107.983 86.1937 107.983ZM86.1937 100.078C84.4762 100.078 83.0789 101.475 83.0789 103.193C83.0789 104.91 84.4762 106.307 86.1937 106.307C87.912 106.307 89.3099 104.91 89.3099 103.193C89.3099 101.475 87.912 100.078 86.1937 100.078Z" fill="white" fill-opacity="0.25"/>
<path d="M346.205 109.483C345.631 109.483 345.086 109.301 344.631 108.958C339.864 105.453 336.529 100.348 335.249 94.5908C335.24 94.5517 335.235 94.5129 335.231 94.4743C335.078 93.7284 335 92.9616 335 92.1935C335 86.0213 340.021 81 346.193 81C352.366 81 357.389 86.0213 357.389 92.1935C357.389 93.0131 357.301 93.825 357.127 94.6085C357.124 94.6464 357.118 94.6842 357.11 94.7215C355.828 100.344 352.567 105.356 347.927 108.835L347.581 109.088C347.556 109.106 347.53 109.123 347.503 109.138C347.109 109.364 346.659 109.483 346.205 109.483ZM336.908 94.3307C338.117 99.6503 341.212 104.364 345.632 107.614C345.927 107.837 346.32 107.866 346.638 107.702L346.927 107.49C351.215 104.275 354.24 99.6496 355.451 94.458C355.454 94.4196 355.46 94.3814 355.469 94.3434C355.631 93.649 355.713 92.9256 355.713 92.1935C355.713 86.9453 351.443 82.6755 346.193 82.6755C340.945 82.6755 336.675 86.9453 336.675 92.1935C336.675 92.8805 336.748 93.5657 336.892 94.2297C336.899 94.2636 336.905 94.2971 336.908 94.3307Z" fill="white" fill-opacity="0.25"/>
<path d="M346.194 96.9829C343.552 96.9829 341.403 94.8343 341.403 92.1932C341.403 89.5515 343.552 87.4022 346.194 87.4022C348.836 87.4022 350.985 89.5515 350.985 92.1932C350.985 94.8343 348.836 96.9829 346.194 96.9829ZM346.194 89.0777C344.476 89.0777 343.079 90.4752 343.079 92.1932C343.079 93.9103 344.476 95.3074 346.194 95.3074C347.912 95.3074 349.31 93.9103 349.31 92.1932C349.31 90.4752 347.912 89.0777 346.194 89.0777Z" fill="white" fill-opacity="0.25"/>
<path d="M317.408 159.525C317.402 159.458 317.396 159.406 317.391 159.37C317.119 156.293 314.862 153.858 311.933 153.858C310.235 153.858 308.684 154.661 307.669 155.963C306.677 154.652 305.185 153.858 303.497 153.858C300.578 153.858 298.325 156.277 298.036 159.388C298.03 159.424 298.024 159.468 298.019 159.52C297.97 160.022 298.011 160.688 298.202 161.5C298.609 163.224 299.561 164.794 300.903 166.01L307.153 171.506C307.458 171.773 307.913 171.774 308.219 171.508L314.515 166.022C315.998 164.477 316.88 163.088 317.23 161.487C317.406 160.683 317.446 160.022 317.408 159.525ZM315.649 161.142C315.374 162.401 314.643 163.554 313.399 164.852L307.69 169.823L301.981 164.804C300.885 163.811 300.107 162.527 299.777 161.128C299.627 160.493 299.597 160.006 299.633 159.644L299.644 159.562C299.852 157.22 301.469 155.476 303.497 155.476C305.007 155.476 306.292 156.397 306.916 157.876C307.194 158.535 308.128 158.535 308.407 157.876C309.018 156.427 310.394 155.476 311.933 155.476C313.961 155.476 315.577 157.22 315.785 159.563C315.791 159.61 315.792 159.623 315.795 159.651C315.821 159.994 315.79 160.497 315.649 161.142Z" fill="white" fill-opacity="0.2"/>
<path d="M29.5904 115.25C29.5851 115.182 29.5791 115.13 29.5738 115.094C29.3021 112.018 27.0448 109.582 24.1154 109.582C22.4182 109.582 20.8673 110.385 19.8517 111.687C18.8599 110.377 17.3681 109.582 15.6799 109.582C12.7604 109.582 10.5083 112.001 10.2184 115.112C10.2128 115.148 10.2072 115.192 10.2021 115.244C10.1525 115.747 10.1937 116.413 10.3853 117.224C10.7922 118.948 11.7438 120.518 13.086 121.735L19.336 127.23C19.6404 127.497 20.0959 127.498 20.4015 127.232L26.6974 121.746C28.1813 120.202 29.0632 118.812 29.4129 117.212C29.5884 116.408 29.6292 115.746 29.5904 115.25ZM27.8324 116.866C27.5573 118.125 26.8255 119.278 25.5818 120.576L19.8727 125.547L14.1634 120.528C13.0683 119.535 12.29 118.251 11.9598 116.852C11.8099 116.217 11.7798 115.73 11.8156 115.368L11.827 115.286C12.0351 112.944 13.6516 111.2 15.6799 111.2C17.1899 111.2 18.4746 112.121 19.099 113.6C19.3772 114.259 20.3112 114.259 20.5895 113.6C21.2013 112.151 22.5771 111.2 24.1154 111.2C26.1438 111.2 27.7601 112.944 27.9682 115.287C27.9738 115.334 27.9753 115.347 27.9775 115.376C28.0042 115.718 27.9732 116.221 27.8324 116.866Z" fill="white" fill-opacity="0.2"/>
</svg>
