<svg width="19" height="15" viewBox="0 0 19 15" fill="none" xmlns="http://www.w3.org/2000/svg">
<path d="M16.2034 15C16.3811 15 16.5515 14.9294 16.6772 14.8037C16.8028 14.6781 16.8734 14.5076 16.8734 14.3299V12.2462C17.4161 12.1006 17.8957 11.7801 18.2377 11.3343C18.5797 10.8885 18.7651 10.3423 18.7651 9.78045C18.7651 9.21857 18.5797 8.67239 18.2377 8.22659C17.8957 7.78079 17.4161 7.46027 16.8734 7.31475V0.688185C16.8734 0.510483 16.8028 0.340059 16.6772 0.214404C16.5515 0.0887497 16.3811 0.018158 16.2034 0.018158C16.0257 0.018158 15.8553 0.0887497 15.7296 0.214404C15.604 0.340059 15.5334 0.510483 15.5334 0.688185V7.32145C14.9907 7.46698 14.5111 7.78749 14.1691 8.23329C13.8271 8.67909 13.6417 9.22527 13.6417 9.78715C13.6417 10.349 13.8271 10.8952 14.1691 11.341C14.5111 11.7868 14.9907 12.1073 15.5334 12.2529V14.3366C15.5352 14.5132 15.6065 14.6819 15.732 14.8061C15.8574 14.9303 16.0269 15 16.2034 15ZM14.9773 9.78045C14.9773 9.53794 15.0492 9.30088 15.1839 9.09924C15.3186 8.8976 15.5101 8.74044 15.7342 8.64764C15.9582 8.55483 16.2048 8.53055 16.4426 8.57786C16.6805 8.62517 16.899 8.74195 17.0704 8.91343C17.2419 9.08491 17.3587 9.30339 17.406 9.54124C17.4533 9.77909 17.429 10.0256 17.3362 10.2497C17.2434 10.4737 17.0863 10.6652 16.8846 10.8C16.683 10.9347 16.4459 11.0066 16.2034 11.0066C15.8782 11.0066 15.5663 10.8774 15.3364 10.6475C15.1064 10.4175 14.9773 10.1056 14.9773 9.78045Z" fill="white"/>
<path d="M9.38254 15C9.56024 15 9.73067 14.9294 9.85632 14.8037C9.98198 14.6781 10.0526 14.5077 10.0526 14.33V5.04339C10.653 4.88097 11.1741 4.50597 11.5188 3.98813C11.8635 3.4703 12.0083 2.84489 11.9264 2.22825C11.8445 1.6116 11.5413 1.04571 11.0734 0.635832C10.6055 0.225955 10.0046 0 9.38254 0C8.76048 0 8.15959 0.225955 7.69166 0.635832C7.22373 1.04571 6.92061 1.6116 6.83869 2.22825C6.75676 2.84489 6.90162 3.4703 7.2463 3.98813C7.59098 4.50597 8.11203 4.88097 8.71251 5.04339V14.33C8.71251 14.5077 8.7831 14.6781 8.90876 14.8037C9.03441 14.9294 9.20484 15 9.38254 15ZM8.15639 2.58439C8.15506 2.3416 8.22585 2.10388 8.35977 1.90137C8.49369 1.69885 8.68472 1.54065 8.90865 1.44681C9.13258 1.35298 9.37933 1.32774 9.61762 1.37429C9.8559 1.42084 10.075 1.53709 10.2472 1.7083C10.4193 1.87951 10.5368 2.09798 10.5846 2.33601C10.6325 2.57404 10.6086 2.82092 10.516 3.04536C10.4234 3.2698 10.2662 3.46169 10.0644 3.59672C9.86266 3.73175 9.62533 3.80384 9.38254 3.80384C9.0585 3.80385 8.74764 3.67558 8.51788 3.44708C8.28813 3.21858 8.15816 2.90843 8.15639 2.58439Z" fill="white"/>
<path d="M1.89165 9.97476V14.3299C1.89165 14.5076 1.96224 14.6781 2.08789 14.8037C2.21355 14.9294 2.38397 15 2.56167 15C2.73937 15 2.9098 14.9294 3.03545 14.8037C3.16111 14.6781 3.2317 14.5076 3.2317 14.3299V9.97476C3.77441 9.82924 4.25395 9.50873 4.59596 9.06293C4.93797 8.61713 5.12335 8.07094 5.12335 7.50906C5.12335 6.94718 4.93797 6.401 4.59596 5.95519C4.25395 5.50939 3.77441 5.18888 3.2317 5.04336V0.688185C3.2317 0.510483 3.16111 0.340059 3.03545 0.214404C2.9098 0.0887497 2.73937 0.018158 2.56167 0.018158C2.38397 0.018158 2.21355 0.0887497 2.08789 0.214404C1.96224 0.340059 1.89165 0.510483 1.89165 0.688185V5.04336C1.34894 5.18888 0.8694 5.50939 0.527388 5.95519C0.185377 6.401 0 6.94718 0 7.50906C0 8.07094 0.185377 8.61713 0.527388 9.06293C0.8694 9.50873 1.34894 9.82924 1.89165 9.97476ZM2.56167 6.28291C2.80446 6.28158 3.04218 6.35237 3.2447 6.48629C3.44722 6.62021 3.60542 6.81124 3.69925 7.03517C3.79309 7.2591 3.81833 7.50585 3.77177 7.74414C3.72522 7.98243 3.60897 8.20153 3.43776 8.37368C3.26655 8.54583 3.04809 8.66328 2.81006 8.71114C2.57203 8.75899 2.32515 8.73511 2.10071 8.6425C1.87627 8.5499 1.68437 8.39275 1.54934 8.19096C1.41431 7.98918 1.34223 7.75185 1.34222 7.50906C1.34222 7.18502 1.47048 6.87416 1.69898 6.6444C1.92748 6.41465 2.23764 6.28468 2.56167 6.28291Z" fill="white"/>
</svg>
