<svg xmlns="http://www.w3.org/2000/svg" viewBox="0 0 100 103.43470087642957" xmlns:xlink="http://www.w3.org/1999/xlink" version="1.1"  ><g transform="translate(50 70.99871664641086) scale(0.8960216638126717)" id="verticalContainerlessSvgTemplate"><g fill="#000000"><g transform="translate(-58.55777777777778 -0.44444444444444287) scale(0.6172839506172839)" fill="#000000"><g id="line1" fill="#000000"><path d="M44.568-42.984L44.568-11.016C44.568-2.592 44.064-1.440 39.672-0.576L39.672 0L57.024 0L57.024-0.576C52.848-1.728 52.416-2.664 52.416-11.016L52.416-37.008C52.416-45.288 52.848-46.224 57.024-47.376L57.024-48.024L39.672-48.024L39.672-47.376C40.752-47.016 41.112-46.584 41.112-45.648C41.112-44.784 40.680-43.776 39.672-42.120L30.960-27.864L22.104-43.920C21.744-44.568 21.528-45.288 21.528-45.792C21.528-46.656 21.888-47.160 22.824-47.376L22.824-48.024L4.464-48.024L4.464-47.376C8.712-46.368 9.144-45.360 9.144-37.008L9.144-11.016C9.144-2.664 8.712-1.656 4.464-0.576L4.464 0L18.792 0L18.792-0.576C14.400-1.368 13.896-2.520 13.896-11.016L13.896-42.984L28.584-17.064Z"></path><path d="M87.890-36.720C76.946-36.720 68.594-28.656 68.594-18.072C68.594-6.840 77.594 0.720 90.842 0.720C93.146 0.720 95.738 0.504 97.754 0.216L99.266 0C99.482-0.072 99.770-0.072 99.986-0.072C100.706-0.072 101.138 0.072 101.714 0.504L105.530-11.592L104.882-11.880C103.442-8.928 102.794-7.992 101.354-6.624C99.122-4.536 95.234-3.024 91.994-3.024C88.034-3.024 83.714-4.968 80.906-8.064C78.674-10.584 77.882-12.168 76.946-16.344L104.882-24.120C102.578-31.968 96.170-36.720 87.890-36.720ZM76.586-19.872C76.586-27.576 80.762-32.760 87.026-32.760C91.346-32.760 94.370-30.312 96.386-25.128L76.586-19.512Z"></path><path d="M134.453-36.720C123.509-36.720 115.157-28.656 115.157-18.072C115.157-6.840 124.157 0.720 137.405 0.720C139.709 0.720 142.301 0.504 144.317 0.216L145.829 0C146.045-0.072 146.333-0.072 146.549-0.072C147.269-0.072 147.701 0.072 148.277 0.504L152.093-11.592L151.445-11.880C150.005-8.928 149.357-7.992 147.917-6.624C145.685-4.536 141.797-3.024 138.557-3.024C134.597-3.024 130.277-4.968 127.469-8.064C125.237-10.584 124.445-12.168 123.509-16.344L151.445-24.120C149.141-31.968 142.733-36.720 134.453-36.720ZM123.149-19.872C123.149-27.576 127.325-32.760 133.589-32.760C137.909-32.760 140.933-30.312 142.949-25.128L123.149-19.512Z"></path><path d="M179.431-35.280L172.591-35.280L172.591-48.600C169.639-47.304 168.919-46.944 166.111-45.648C166.471-43.848 166.543-42.984 166.543-41.976C166.543-37.224 164.455-34.056 160.351-32.472L160.351-31.896L165.247-31.896L165.247-9.000C165.247-2.448 168.055 0.720 173.887 0.720C176.839 0.720 180.367 0.216 182.815-0.648L185.263-6.624L184.831-6.840C182.671-4.320 180.583-3.240 177.991-3.240C174.463-3.240 172.591-5.544 172.591-10.008L172.591-31.896L178.999-31.896C180.439-31.896 180.655-31.896 181.159-31.392L183.247-36.432C181.951-35.424 181.375-35.280 179.431-35.280Z"></path></g></g><g transform="translate(-55.80222222222222 35.62222222222222) scale(0.6172839506172839)" fill="#000000"><g id="line2" fill="#000000"><path d="M50.760-14.184C47.016-6.552 41.760-2.952 34.488-2.952C21.960-2.952 12.744-13.320 12.744-27.360C12.744-38.376 19.008-45.216 29.088-45.216C33.408-45.216 37.584-43.920 40.608-41.616C42.840-39.888 43.704-38.736 45.216-35.640L45.792-35.856L42.480-49.608C41.832-48.528 41.040-48.168 39.528-48.168C39.096-48.168 38.088-48.240 37.296-48.312C32.616-48.888 32.112-48.960 29.376-48.960C13.392-48.960 3.816-40.464 3.816-26.280C3.816-18.216 7.128-10.800 12.816-5.904C18.216-1.296 25.416 0.936 34.704 0.936C36.000 0.936 37.224 0.936 38.376 0.864L41.472 0.576L42.696 0.576L43.920 0.504L44.280 0.504C44.928 0.504 45.144 0.504 45.792 0.792L51.408-13.896Z"></path><path d="M88.826 0L99.410 0L99.410-0.648C95.954-0.864 94.730-2.592 94.730-7.416L94.730-10.368L94.730-36.000L82.778-35.064L82.778-34.488C86.666-34.128 87.314-33.048 87.314-26.928L87.314-19.800C87.314-15.336 86.738-12.528 85.298-10.080C83.282-6.768 79.322-4.392 75.938-4.392C71.906-4.392 70.322-6.840 70.322-13.104L70.322-36.000L58.514-35.064L58.514-34.488C62.330-33.984 62.978-32.976 62.978-26.928L62.978-9.216C62.978-3.168 66.362 0.720 71.762 0.720C74.426 0.720 77.162-0.072 79.898-1.728C82.634-3.312 83.930-4.320 87.314-7.416C87.602-3.816 87.818-2.736 88.826 0Z"></path><path d="M127.829-35.280L120.989-35.280L120.989-48.600C118.037-47.304 117.317-46.944 114.509-45.648C114.869-43.848 114.941-42.984 114.941-41.976C114.941-37.224 112.853-34.056 108.749-32.472L108.749-31.896L113.645-31.896L113.645-9.000C113.645-2.448 116.453 0.720 122.285 0.720C125.237 0.720 128.765 0.216 131.213-0.648L133.661-6.624L133.229-6.840C131.069-4.320 128.981-3.240 126.389-3.240C122.861-3.240 120.989-5.544 120.989-10.008L120.989-31.896L127.397-31.896C128.837-31.896 129.053-31.896 129.557-31.392L131.645-36.432C130.349-35.424 129.773-35.280 127.829-35.280Z"></path><path d="M159.343-36.720C148.399-36.720 140.047-28.656 140.047-18.072C140.047-6.840 149.047 0.720 162.295 0.720C164.599 0.720 167.191 0.504 169.207 0.216L170.719 0C170.935-0.072 171.223-0.072 171.439-0.072C172.159-0.072 172.591 0.072 173.167 0.504L176.983-11.592L176.335-11.880C174.895-8.928 174.247-7.992 172.807-6.624C170.575-4.536 166.687-3.024 163.447-3.024C159.487-3.024 155.167-4.968 152.359-8.064C150.127-10.584 149.335-12.168 148.399-16.344L176.335-24.120C174.031-31.968 167.623-36.720 159.343-36.720ZM148.039-19.872C148.039-27.576 152.215-32.760 158.479-32.760C162.799-32.760 165.823-30.312 167.839-25.128L148.039-19.512Z"></path></g></g><g transform="translate(-28.738871192281056 -79.23772327591215) scale(0.5526108335883494)" id="logomark"><g fill="#000000"><path d="M97.6 31.1c-.1-.1-.2-.2-.3-.2-6.9-2.3-15 1-20.3 8.2.5-4.2 1-13.3-3.6-18.3-2.4-2.6-5.9-3.6-10.2-3.2.2-.8.4-1.5.5-2.3v-.1c-.5-11.3-4-12.6-8.4-14.2L52.9.1c-.1-.1-.2-.1-.3-.1-1 .3-2.1.5-3.1.7C43.8 1.9 38 3.1 31.8 16c-1.9-3.9-10-17.7-27.3-12.3-.1 0-.1 0-.2.1C1 6.4-.4 10.5.1 16.1c1.7 16.5 20 40.4 30.2 45.4h.2c.1 0 .2 0 .3-.1C38.2 57 47 50.1 53.9 39.6c.5 10.4 3.8 20.8 9.5 30.4.1.2.3.2.4.2h.2c1.7-.7 3.3-1.3 4.8-1.8C82 63.3 90 60.3 95.7 54.7c6.3-6.4 7-15.4 1.9-23.6zM30.5 60.5C20.5 55.2 2.7 32 1.1 16c-.5-5.2.7-9 3.7-11.3 19-5.9 26.2 11.9 26.5 12.7.1.2.2.3.4.3s.4-.1.5-.3C38.4 4 44.1 2.8 49.7 1.7c1-.2 2-.4 3-.7.8.3 1.5.6 2.3.9 4.2 1.6 7.2 2.7 7.8 13.4-.2 1-.4 1.9-.6 2.8v.1c-5.9 22.7-20.3 35.4-31.7 42.3zM95 53.9c-5.5 5.5-13.4 8.5-26.5 13.5-1.4.5-2.9 1.1-4.4 1.7-5.8-9.7-9-20.4-9.2-31 3.4-5.5 6.2-11.9 8.1-19.3 4.2-.5 7.5.4 9.8 2.8 5.7 6 3 19.5 3 19.6 0 .2.1.5.3.6.2.1.5 0 .6-.2 4.9-8 13.2-12 20.2-9.7 4.8 7.8 4.1 16-1.9 22z"></path></g></g></g></g></svg>