<svg width="15" height="16" viewBox="0 0 15 16" fill="none" xmlns="http://www.w3.org/2000/svg">
<path d="M0.556375 16C0.414752 16 0.263014 15.9404 0.161855 15.8411C0.0606955 15.7318 0 15.5928 0 15.4538V14.7089C0 13.2489 0.4451 11.8485 1.2746 10.6468C2.11423 9.43513 3.27755 8.51148 4.65332 7.97517L4.98714 7.84606L4.7039 7.63749C3.98567 7.09125 3.46976 6.34637 3.21686 5.48231C2.95385 4.62818 2.97408 3.72439 3.27755 2.8802C3.57092 2.036 4.12729 1.31099 4.86575 0.794538C5.60421 0.278088 6.47418 0 7.38461 0C8.29505 0 9.16502 0.278088 9.91359 0.794538C10.6521 1.31099 11.2084 2.036 11.5018 2.8802C11.7952 3.72439 11.8154 4.62818 11.5625 5.48231C11.2995 6.33644 10.7836 7.08132 10.0754 7.63749L9.7922 7.84606L10.1159 7.97517C11.4917 8.51148 12.655 9.43513 13.4946 10.6369C14.3241 11.8386 14.7692 13.2489 14.7692 14.6989V15.4438C14.7692 15.5928 14.7085 15.7318 14.6074 15.8312C14.5062 15.9305 14.3646 15.9901 14.2129 15.9901H0.556375V16ZM7.38461 8.55121C5.70537 8.55121 4.13741 9.19677 2.95385 10.3588C1.77028 11.5208 1.11275 13.0701 1.11275 14.7089V14.9075H13.6565V14.7089C13.6565 13.0602 12.9989 11.5208 11.8154 10.3588C10.6521 9.2067 9.03351 8.55121 7.38461 8.55121ZM7.38461 1.10242C6.95975 1.10242 6.54499 1.18187 6.15047 1.34078C5.55364 1.57914 5.04784 1.98634 4.69378 2.51272C4.33973 3.03911 4.14752 3.64494 4.14752 4.28057C4.14752 5.12477 4.48135 5.92924 5.09842 6.52514C5.70537 7.12104 6.53488 7.45872 7.38461 7.45872C8.02192 7.45872 8.6491 7.27002 9.18525 6.92241C9.72139 6.5748 10.1361 6.07821 10.3789 5.49224C10.6217 4.90627 10.6925 4.28057 10.561 3.65487C10.4396 3.03911 10.126 2.473 9.67081 2.02607C9.2156 1.58908 8.6491 1.28119 8.0118 1.16201C7.80948 1.12228 7.59705 1.10242 7.38461 1.10242Z" fill="#706A79"/>
</svg>
