<svg width="15" height="15" viewBox="0 0 15 15" fill="none" xmlns="http://www.w3.org/2000/svg">
<path d="M10.9988 9.67336H10.3037L10.0574 9.43594C11.1132 8.20485 11.6587 6.5253 11.3596 4.74023C10.946 2.29564 8.90475 0.343495 6.44114 0.0445174C2.71932 -0.412743 -0.412985 2.71773 0.0445435 6.43736C0.343697 8.89953 2.29699 10.9396 4.74301 11.3529C6.52913 11.6519 8.20966 11.1067 9.44147 10.0515L9.67903 10.2977V10.9924L13.4184 14.7296C13.7792 15.0901 14.3687 15.0901 14.7294 14.7296C15.0902 14.3691 15.0902 13.7799 14.7294 13.4194L10.9988 9.67336ZM5.71965 9.67336C3.5288 9.67336 1.76027 7.90587 1.76027 5.7163C1.76027 3.52673 3.5288 1.75924 5.71965 1.75924C7.91051 1.75924 9.67903 3.52673 9.67903 5.7163C9.67903 7.90587 7.91051 9.67336 5.71965 9.67336Z" fill="white"/>
</svg>
