<svg width="17" height="23" viewBox="0 0 17 23" fill="none" xmlns="http://www.w3.org/2000/svg">
<path d="M8.50775 22.5666C8.07194 22.5666 7.65877 22.4256 7.31306 22.1588C3.69348 19.4325 1.16119 15.4622 0.18915 10.984C0.182519 10.9536 0.178066 10.9234 0.175745 10.8934C0.0591184 10.3133 4.41396e-10 9.71682 4.41396e-10 9.11941C-4.73701e-05 4.31885 3.81276 0.413376 8.49931 0.413376C13.1865 0.413376 17 4.31885 17 9.11941C17 9.7569 16.9333 10.3884 16.8014 10.9978C16.7991 11.0273 16.7946 11.0566 16.7881 11.0856C15.8149 15.4584 13.3386 19.3568 9.81555 22.0626L9.55298 22.2596C9.53408 22.2737 9.51437 22.2868 9.494 22.2986C9.19424 22.4739 8.85312 22.5666 8.50775 22.5666ZM1.44859 10.7817C2.36677 14.9192 4.71687 18.5857 8.07279 21.1135C8.29709 21.2867 8.59557 21.3091 8.83659 21.1818L9.05639 21.0169C12.3121 18.5165 14.6095 14.9187 15.5287 10.8807C15.5311 10.8508 15.5358 10.8211 15.5424 10.7916C15.6655 10.2515 15.7278 9.68887 15.7278 9.11941C15.7278 5.03746 12.4852 1.71654 8.49931 1.71654C4.51427 1.71654 1.27218 5.03746 1.27218 9.11941C1.27218 9.65374 1.32751 10.1867 1.43684 10.7032C1.44229 10.7295 1.44627 10.7556 1.44859 10.7817Z" fill="#F29294"/>
<path d="M8.49965 12.8445C6.49394 12.8445 4.8623 11.1733 4.8623 9.11918C4.8623 7.06455 6.49398 5.39285 8.49965 5.39285C10.5058 5.39285 12.138 7.06455 12.138 9.11918C12.138 11.1733 10.5058 12.8445 8.49965 12.8445ZM8.49965 6.69602C7.19549 6.69602 6.13449 7.78297 6.13449 9.11918C6.13449 10.4547 7.19549 11.5413 8.49965 11.5413C9.80433 11.5413 10.8658 10.4547 10.8658 9.11918C10.8658 7.78297 9.80433 6.69602 8.49965 6.69602Z" fill="#F29294"/>
</svg>
