<svg width="22" height="22" viewBox="0 0 22 22" fill="none" xmlns="http://www.w3.org/2000/svg">
<path d="M12.3748 22H9.6248C8.98313 22 8.2498 21.45 8.2498 20.35V18.425C8.2498 17.5084 7.79146 16.6833 7.05813 16.0417C5.40813 14.7583 4.58313 12.925 4.58313 10.9083C4.6748 7.42501 7.51646 4.67501 10.9081 4.58334C12.6498 4.58334 14.2998 5.22501 15.4915 6.41668C16.6831 7.60835 17.4165 9.25835 17.4165 11C17.4165 12.925 16.5915 14.7583 15.0331 15.95C14.2081 16.5917 13.7498 17.6 13.7498 18.5167V20.625C13.7498 21.3584 13.1081 22 12.3748 22ZM10.9998 5.50001C8.06646 5.50001 5.59146 7.97501 5.4998 10.9083C5.4998 12.65 6.23313 14.3 7.60813 15.3083C8.61646 16.1334 9.16646 17.2334 9.16646 18.425V20.35C9.16646 20.5334 9.16646 21.0834 9.6248 21.0834H12.3748C12.6498 21.0834 12.8331 20.9 12.8331 20.625V18.5167C12.8331 17.325 13.4748 16.0417 14.4831 15.2167C15.7665 14.2083 16.4998 12.65 16.4998 11C16.4998 9.53335 15.9498 8.15835 14.8498 7.05834C13.8415 6.05001 12.4665 5.50001 10.9998 5.50001Z" fill="#F29294"/>
<path d="M13.2917 19.25H8.70833C8.43333 19.25 8.25 19.0667 8.25 18.7917C8.25 18.5167 8.43333 18.3333 8.70833 18.3333H13.2917C13.5667 18.3333 13.75 18.5167 13.75 18.7917C13.75 19.0667 13.5667 19.25 13.2917 19.25Z" fill="#F29294"/>
<path d="M11.0002 2.75C10.7252 2.75 10.5419 2.56667 10.5419 2.29167V0.458333C10.5419 0.183333 10.7252 0 11.0002 0C11.2752 0 11.4585 0.183333 11.4585 0.458333V2.29167C11.4585 2.56667 11.2752 2.75 11.0002 2.75Z" fill="#F29294"/>
<path d="M17.1416 5.31667C17.05 5.31667 16.8666 5.31667 16.775 5.225C16.5916 5.04167 16.5916 4.76667 16.775 4.58334L18.0583 3.30001C18.2416 3.11667 18.5166 3.11667 18.6999 3.30001C18.8833 3.48334 18.8833 3.75834 18.6999 3.94167L17.4166 5.225C17.4166 5.225 17.2333 5.31667 17.1416 5.31667Z" fill="#F29294"/>
<path d="M21.5417 11.4583H19.7083C19.4333 11.4583 19.25 11.275 19.25 11C19.25 10.725 19.4333 10.5417 19.7083 10.5417H21.5417C21.8167 10.5417 22 10.725 22 11C22 11.275 21.8167 11.4583 21.5417 11.4583Z" fill="#F29294"/>
<path d="M18.4249 18.8833C18.3333 18.8833 18.1499 18.8833 18.0583 18.7916L16.775 17.5083C16.5916 17.325 16.5916 17.05 16.775 16.8667C16.9583 16.6833 17.2333 16.6833 17.4166 16.8667L18.6999 18.15C18.8833 18.3333 18.8833 18.6083 18.6999 18.7916C18.6999 18.8833 18.6083 18.8833 18.4249 18.8833Z" fill="#F29294"/>
<path d="M3.57509 18.8833C3.48342 18.8833 3.30009 18.8833 3.20842 18.7916C3.02509 18.6083 3.02509 18.3333 3.20842 18.15L4.49176 16.8667C4.67509 16.6833 4.95009 16.6833 5.13342 16.8667C5.31676 17.05 5.31676 17.325 5.13342 17.5083L3.85009 18.7916C3.75842 18.8833 3.66676 18.8833 3.57509 18.8833Z" fill="#F29294"/>
<path d="M2.29167 11.4583H0.458333C0.183333 11.4583 0 11.275 0 11C0 10.725 0.183333 10.5417 0.458333 10.5417H2.29167C2.56667 10.5417 2.75 10.725 2.75 11C2.75 11.275 2.56667 11.4583 2.29167 11.4583Z" fill="#F29294"/>
<path d="M4.85842 5.31666C4.76676 5.31666 4.58342 5.31666 4.49176 5.22499L3.20842 3.85C3.02509 3.66666 3.02509 3.39166 3.20842 3.20833C3.39176 3.025 3.66676 3.025 3.85009 3.20833L5.13342 4.49166C5.31676 4.675 5.31676 4.94999 5.13342 5.13333C5.04176 5.22499 4.95009 5.31666 4.85842 5.31666Z" fill="#F29294"/>
<path d="M14.6669 11.4583C14.3919 11.4583 14.2085 11.275 14.2085 11C14.2085 9.25833 12.7419 7.79166 11.0002 7.79166C10.7252 7.79166 10.5419 7.60833 10.5419 7.33333C10.5419 7.05833 10.7252 6.875 11.0002 6.875C13.2919 6.875 15.1252 8.70833 15.1252 11C15.1252 11.275 14.9419 11.4583 14.6669 11.4583Z" fill="#F29294"/>
</svg>
