<svg width="24" height="20" viewBox="0 0 24 20" fill="none" xmlns="http://www.w3.org/2000/svg">
<path d="M3.13928 6.49767H7.78138L8.82215 7.6657C9.00489 7.87096 9.33449 7.87517 9.52272 7.67467L10.627 6.49767H12.1554C12.4176 6.49767 12.6302 6.28508 12.6302 6.02306V0.474609C12.6302 0.212585 12.4176 0 12.1554 0H8.02436C7.76216 0 7.54957 0.212585 7.54957 0.474609C7.54957 0.736815 7.76216 0.9494 8.02436 0.9494H11.6808V5.54827H10.4216C10.2905 5.54827 10.1651 5.60265 10.0753 5.69823L9.18562 6.64635L8.34864 5.7072C8.25855 5.60613 8.12965 5.54827 7.99415 5.54827H3.61408V0.9494H4.15534C4.41754 0.9494 4.63013 0.736815 4.63013 0.474609C4.63013 0.212585 4.41754 0 4.15534 0H3.13928C2.87726 0 2.66467 0.212585 2.66467 0.474609V6.02306C2.66467 6.28508 2.87726 6.49767 3.13928 6.49767Z" fill="#F29294"/>
<path d="M14.4143 7.36447H15.9427L17.0472 8.54129C17.2352 8.74179 17.5648 8.73758 17.7477 8.53232L18.7885 7.36447H23.4304C23.6926 7.36447 23.905 7.15189 23.905 6.88968V1.3414C23.905 1.07919 23.6926 0.866608 23.4304 0.866608H14.4143C14.1521 0.866608 13.9397 1.07919 13.9397 1.3414V6.88968C13.9397 7.15189 14.1521 7.36447 14.4143 7.36447ZM14.8891 1.81601H22.9556V6.41507H18.5756C18.4402 6.41507 18.3113 6.47293 18.2212 6.57382L17.3843 7.51315L16.4944 6.56485C16.4047 6.46927 16.2794 6.41507 16.1483 6.41507H14.8891V1.81601Z" fill="#F29294"/>
<path d="M17.4869 4.56484C17.6849 4.56484 17.8665 4.43685 17.9335 4.25082C18.0004 4.06478 17.9421 3.85036 17.7894 3.72439C17.6364 3.59823 17.4163 3.5812 17.2456 3.68172C17.0753 3.78207 16.9832 3.98513 17.0208 4.17922C17.0636 4.39986 17.2617 4.56484 17.4869 4.56484Z" fill="#F29294"/>
<path d="M19.0643 4.56484C19.2625 4.56484 19.4441 4.43704 19.5111 4.25082C19.5783 4.06496 19.5199 3.85018 19.3672 3.72439C19.2143 3.59823 18.9939 3.5812 18.823 3.68172C18.6527 3.78207 18.5606 3.98513 18.5984 4.17922C18.641 4.39968 18.8393 4.56484 19.0643 4.56484Z" fill="#F29294"/>
<path d="M20.6412 4.56483C20.8393 4.56483 21.0204 4.43684 21.0876 4.2508C21.1548 4.06495 21.0964 3.85017 20.9437 3.72437C20.7908 3.5984 20.5705 3.581 20.3999 3.68171C20.2298 3.78205 20.1376 3.98512 20.1752 4.17921C20.2178 4.39985 20.416 4.56483 20.6412 4.56483Z" fill="#F29294"/>
<path d="M23.5252 18.4933H19.9301C19.946 18.4157 19.9545 18.3351 19.9545 18.2527V15.9657C19.9545 14.9366 19.3711 14.0446 18.5017 13.6152C18.9285 13.1135 19.1869 12.4642 19.1869 11.7554C19.1869 10.1702 17.8973 8.88062 16.3123 8.88062C14.7272 8.88062 13.4376 10.1702 13.4376 11.7554C13.4376 12.4642 13.6959 13.1135 14.1229 13.6152C13.7289 13.81 13.3936 14.0997 13.1448 14.4542C12.8959 14.0995 12.5609 13.8098 12.1666 13.615C12.5934 13.1133 12.8518 12.4642 12.8518 11.7554C12.8518 10.1702 11.5622 8.88062 9.97723 8.88062C8.39209 8.88062 7.10248 10.1702 7.10248 11.7554C7.10248 12.4642 7.36102 13.1135 7.78784 13.6152C7.3938 13.81 7.05853 14.0997 6.80988 14.4542C6.56104 14.0997 6.22577 13.8098 5.83154 13.6152C6.25836 13.1135 6.51672 12.4642 6.51672 11.7554C6.51672 10.1702 5.22729 8.88062 3.64215 8.88062C2.05701 8.88062 0.767395 10.1702 0.767395 11.7554C0.767395 12.4642 1.02576 13.1135 1.45276 13.6152C0.583557 14.0447 0 14.937 0 15.9657V18.2527C0 18.9089 0.533936 19.4427 1.19 19.4427H23.5252C23.7874 19.4427 24 19.2301 24 18.9681C24 18.7059 23.7874 18.4933 23.5252 18.4933ZM16.3123 9.83002C17.374 9.83002 18.2377 10.6937 18.2377 11.7554C18.2377 12.817 17.374 13.6807 16.3123 13.6807C15.2507 13.6807 14.387 12.817 14.387 11.7554C14.387 10.6939 15.2507 9.83002 16.3123 9.83002ZM9.97723 9.83002C11.0389 9.83002 11.9026 10.6937 11.9026 11.7554C11.9026 12.817 11.0389 13.6807 9.97723 13.6807C8.91559 13.6807 8.05206 12.817 8.05206 11.7554C8.05206 10.6939 8.91559 9.83002 9.97723 9.83002ZM3.64215 9.83002C4.7038 9.83002 5.5675 10.6937 5.5675 11.7554C5.5675 12.817 4.7038 13.6807 3.64215 13.6807C2.58069 13.6807 1.71698 12.817 1.71698 11.7554C1.71698 10.6939 2.58069 9.83002 3.64215 9.83002ZM1.19 18.4933C1.05725 18.4933 0.949402 18.3854 0.949402 18.2527V15.9657C0.949402 15.1395 1.53882 14.4514 2.33936 14.3165C2.73083 14.5164 3.1734 14.6301 3.64215 14.6301C4.11108 14.6301 4.55365 14.5164 4.94495 14.3165C5.74567 14.4512 6.33508 15.1392 6.33508 15.9657V18.2527C6.33508 18.3853 6.22705 18.4933 6.09448 18.4933H1.19ZM7.52509 18.4933C7.39233 18.4933 7.28448 18.3854 7.28448 18.2527V15.9657C7.28448 15.1395 7.8739 14.4514 8.67444 14.3165C9.06592 14.5164 9.50848 14.6301 9.97723 14.6301C10.4462 14.6301 10.8887 14.5164 11.28 14.3165C12.0807 14.4512 12.6702 15.1392 12.6702 15.9657V18.2527C12.6702 18.3853 12.5621 18.4933 12.4296 18.4933H7.52509ZM13.8602 18.4933C13.7274 18.4933 13.6196 18.3854 13.6196 18.2527V15.9657C13.6196 15.1395 14.209 14.4514 15.0095 14.3165C15.4008 14.5164 15.8434 14.6301 16.3123 14.6301C16.7812 14.6301 17.2238 14.5164 17.6151 14.3167C18.4158 14.4514 19.0051 15.1392 19.0051 15.9657V18.2527C19.0051 18.3854 18.8972 18.4933 18.7646 18.4933H13.8602Z" fill="#F29294"/>
<path d="M6.07789 0.949393C6.27601 0.949393 6.4571 0.821403 6.5243 0.635368C6.5915 0.449517 6.53291 0.234917 6.38038 0.108941C6.22749 -0.0170352 6.00703 -0.0342471 5.83638 0.0662776C5.66627 0.166619 5.57417 0.369683 5.61171 0.563774C5.65456 0.784599 5.85267 0.949393 6.07789 0.949393Z" fill="#F29294"/>
</svg>
