<svg width="12" height="15" viewBox="0 0 12 15" fill="none" xmlns="http://www.w3.org/2000/svg">
<path d="M5.90091 14.9998C5.59865 14.9998 5.31209 14.9043 5.07232 14.7237C2.56189 12.8777 0.80558 10.1894 0.131402 7.15721C0.126803 7.13664 0.123714 7.11621 0.122104 7.09587C0.0412162 6.70306 0.000213623 6.29921 0.000213623 5.8947C0.000180769 2.64422 2.64462 -0.000183105 5.89507 -0.000183105C9.14597 -0.000183105 11.7909 2.64422 11.7909 5.8947C11.7909 6.32635 11.7446 6.75395 11.6531 7.16654C11.6515 7.18651 11.6484 7.20639 11.6439 7.22604C10.9689 10.1869 9.25143 12.8264 6.80797 14.6586L6.62585 14.792C6.61274 14.8015 6.59908 14.8104 6.58495 14.8184C6.37704 14.9371 6.14046 14.9998 5.90091 14.9998ZM1.00491 7.02027C1.64173 9.82176 3.27169 12.3044 5.59924 14.0159C5.75481 14.1332 5.96183 14.1484 6.12899 14.0622L6.28144 13.9505C8.53947 12.2575 10.1329 9.82139 10.7704 7.08726C10.7721 7.06705 10.7753 7.04695 10.7799 7.02694C10.8653 6.66123 10.9085 6.28028 10.9085 5.8947C10.9085 3.1308 8.65952 0.882195 5.89507 0.882195C3.13117 0.882195 0.882559 3.1308 0.882559 5.8947C0.882559 6.2565 0.920933 6.61737 0.996762 6.96708C1.00054 6.98489 1.0033 7.00256 1.00491 7.02027Z" fill="white"/>
<path d="M5.89521 8.41697C4.50411 8.41697 3.37247 7.28542 3.37247 5.89455C3.37247 4.50335 4.50415 3.37144 5.89521 3.37144C7.28664 3.37144 8.41865 4.50335 8.41865 5.89455C8.41868 7.28542 7.28664 8.41697 5.89521 8.41697ZM5.89521 4.25382C4.99069 4.25382 4.25481 4.9898 4.25481 5.89455C4.25481 6.79884 4.99069 7.53459 5.89521 7.53459C6.8001 7.53459 7.53631 6.79884 7.53631 5.89455C7.53631 4.9898 6.8001 4.25382 5.89521 4.25382Z" fill="white"/>
</svg>
