<svg width="12" height="16" viewBox="0 0 12 16" fill="none" xmlns="http://www.w3.org/2000/svg">
<path d="M6 0C3.5 0 1.5 2 1.5 4.5V6.5C0.65 6.5 0 7.15 0 8V14.5C0 15.35 0.65 16 1.5 16H10.5C11.35 16 12 15.35 12 14.5V8C12 7.15 11.35 6.5 10.5 6.5V4.5C10.5 2 8.5 0 6 0ZM11 8V14.5C11 14.8 10.8 15 10.5 15H1.5C1.2 15 1 14.8 1 14.5V8C1 7.7 1.2 7.5 1.5 7.5H2H10H10.5C10.8 7.5 11 7.7 11 8ZM2.5 6.5V4.5C2.5 2.55 4.05 1 6 1C7.95 1 9.5 2.55 9.5 4.5V6.5H2.5Z" fill="#706A79"/>
<path d="M6 9C5.15 9 4.5 9.65 4.5 10.5C4.5 11.15 4.9 11.7 5.5 11.9V13C5.5 13.3 5.7 13.5 6 13.5C6.3 13.5 6.5 13.3 6.5 13V11.9C7.1 11.7 7.5 11.15 7.5 10.5C7.5 9.65 6.85 9 6 9ZM6 11C5.7 11 5.5 10.8 5.5 10.5C5.5 10.2 5.7 10 6 10C6.3 10 6.5 10.2 6.5 10.5C6.5 10.8 6.3 11 6 11Z" fill="#706A79"/>
</svg>
